<?xml version="1.0" encoding="UTF-8" standalone="no"?>
<!-- Created with Inkscape (http://www.inkscape.org/) -->

<svg
   xmlns:ns0="http://www.iki.fi/pav/software/textext/"
   xmlns:dc="http://purl.org/dc/elements/1.1/"
   xmlns:cc="http://creativecommons.org/ns#"
   xmlns:rdf="http://www.w3.org/1999/02/22-rdf-syntax-ns#"
   xmlns:svg="http://www.w3.org/2000/svg"
   xmlns="http://www.w3.org/2000/svg"
   xmlns:xlink="http://www.w3.org/1999/xlink"
   xmlns:sodipodi="http://sodipodi.sourceforge.net/DTD/sodipodi-0.dtd"
   xmlns:inkscape="http://www.inkscape.org/namespaces/inkscape"
   version="1.1"
   inkscape:output_extension="org.inkscape.output.svg.inkscape"
   sodipodi:docname="plane_sfm_graph_relative.svg"
   inkscape:version="0.48.3.1 r9886"
   sodipodi:version="0.32"
   id="svg2"
   height="162.00117"
   width="455.02524">
  <sodipodi:namedview
     id="base"
     pagecolor="#ffffff"
     bordercolor="#666666"
     borderopacity="1.0"
     gridtolerance="10000"
     guidetolerance="10"
     objecttolerance="10"
     inkscape:pageopacity="0.0"
     inkscape:pageshadow="2"
     inkscape:zoom="2.4465895"
     inkscape:cx="222.30904"
     inkscape:cy="84.418733"
     inkscape:document-units="px"
     inkscape:current-layer="layer1"
     showgrid="true"
     showguides="true"
     inkscape:window-width="1600"
     inkscape:window-height="970"
     inkscape:window-x="318"
     inkscape:window-y="81"
     inkscape:guide-bbox="true"
     inkscape:snap-grids="true"
     inkscape:snap-page="false"
     inkscape:snap-to-guides="true"
     inkscape:window-maximized="0"
     inkscape:snap-smooth-nodes="false"
     inkscape:object-paths="false">
    <inkscape:grid
       type="xygrid"
       id="grid3177"
       empspacing="5"
       visible="true"
       enabled="true"
       snapvisiblegridlinesonly="true" />
  </sodipodi:namedview>
  <defs
     id="defs4">
    <inkscape:perspective
       sodipodi:type="inkscape:persp3d"
       inkscape:vp_x="0 : 526.18109 : 1"
       inkscape:vp_y="0 : 1000 : 0"
       inkscape:vp_z="744.09448 : 526.18109 : 1"
       inkscape:persp3d-origin="372.04724 : 350.78739 : 1"
       id="perspective10" />
    <defs
       id="defs16688">
      <g
         id="g16690">
        <symbol
           id="textext-a6bc9e9d-0"
           overflow="visible"
           style="overflow:visible">
          <path
             id="path16693"
             d=""
             style="stroke:none" />
        </symbol>
        <symbol
           id="textext-a6bc9e9d-1"
           overflow="visible"
           style="overflow:visible">
          <path
             id="path16696"
             d="M 3.59375,-2.21875 C 3.59375,-2.984375 3.5,-3.546875 3.1875,-4.03125 2.96875,-4.34375 2.53125,-4.625 1.984375,-4.625 c -1.625,0 -1.625,1.90625 -1.625,2.40625 0,0.5 0,2.359375 1.625,2.359375 1.609375,0 1.609375,-1.859375 1.609375,-2.359375 z M 1.984375,-0.0625 c -0.328125,0 -0.75,-0.1875 -0.890625,-0.75 C 1,-1.21875 1,-1.796875 1,-2.3125 1,-2.828125 1,-3.359375 1.09375,-3.734375 1.25,-4.28125 1.6875,-4.4375 1.984375,-4.4375 c 0.375,0 0.734375,0.234375 0.859375,0.640625 0.109375,0.375 0.125,0.875 0.125,1.484375 0,0.515625 0,1.03125 -0.09375,1.46875 -0.140625,0.640625 -0.609375,0.78125 -0.890625,0.78125 z"
             style="stroke:none" />
        </symbol>
        <symbol
           id="textext-a6bc9e9d-2"
           overflow="visible"
           style="overflow:visible">
          <path
             id="path16699"
             d=""
             style="stroke:none" />
        </symbol>
        <symbol
           id="textext-a6bc9e9d-3"
           overflow="visible"
           style="overflow:visible">
          <path
             id="path16702"
             d="m 4.40625,-6.953125 c -0.0625,-0.140625 -0.09375,-0.1875 -0.265625,-0.1875 -0.15625,0 -0.1875,0.046875 -0.25,0.1875 l -3.375,6.75 C 0.46875,-0.109375 0.46875,-0.09375 0.46875,-0.078125 0.46875,0 0.53125,0 0.6875,0 l 6.921875,0 c 0.15625,0 0.21875,0 0.21875,-0.078125 0,-0.015625 0,-0.03125 -0.046875,-0.125 l -3.375,-6.75 z m -0.578125,0.8125 2.6875,5.390625 -5.375,0 2.6875,-5.390625 z"
             style="stroke:none" />
        </symbol>
        <symbol
           id="textext-a6bc9e9d-4"
           overflow="visible"
           style="overflow:visible">
          <path
             id="path16705"
             d="m 4.578125,-3.1875 c 0,-0.796875 -0.046875,-1.59375 -0.390625,-2.328125 -0.453125,-0.96875 -1.28125,-1.125 -1.6875,-1.125 -0.609375,0 -1.328125,0.265625 -1.75,1.1875 -0.3125,0.6875 -0.359375,1.46875 -0.359375,2.265625 0,0.75 0.03125,1.640625 0.453125,2.40625 0.421875,0.796875 1.15625,1 1.640625,1 0.53125,0 1.296875,-0.203125 1.734375,-1.15625 0.3125,-0.6875 0.359375,-1.46875 0.359375,-2.25 z M 2.484375,0 C 2.09375,0 1.5,-0.25 1.328125,-1.203125 1.21875,-1.796875 1.21875,-2.71875 1.21875,-3.3125 c 0,-0.640625 0,-1.296875 0.078125,-1.828125 0.1875,-1.1875 0.9375,-1.28125 1.1875,-1.28125 0.328125,0 0.984375,0.1875 1.171875,1.171875 0.109375,0.5625 0.109375,1.3125 0.109375,1.9375 0,0.75 0,1.421875 -0.109375,2.0625 C 3.5,-0.296875 2.9375,0 2.484375,0 z"
             style="stroke:none" />
        </symbol>
      </g>
    </defs>
    <defs
       id="defs22288">
      <g
         id="g22290">
        <symbol
           id="textext-e00aab29-0"
           overflow="visible"
           style="overflow:visible">
          <path
             id="path22293"
             d=""
             style="stroke:none" />
        </symbol>
        <symbol
           id="textext-e00aab29-1"
           overflow="visible"
           style="overflow:visible">
          <path
             id="path22296"
             d="m 2.9375,-6.375 c 0,-0.25 0,-0.265625 -0.234375,-0.265625 C 2.078125,-6 1.203125,-6 0.890625,-6 l 0,0.3125 c 0.203125,0 0.78125,0 1.296875,-0.265625 l 0,5.171875 c 0,0.359375 -0.03125,0.46875 -0.921875,0.46875 l -0.3125,0 0,0.3125 c 0.34375,-0.03125 1.203125,-0.03125 1.609375,-0.03125 0.390625,0 1.265625,0 1.609375,0.03125 l 0,-0.3125 -0.3125,0 c -0.90625,0 -0.921875,-0.109375 -0.921875,-0.46875 l 0,-5.59375 z"
             style="stroke:none" />
        </symbol>
        <symbol
           id="textext-e00aab29-2"
           overflow="visible"
           style="overflow:visible">
          <path
             id="path22299"
             d="m 4.46875,-1.734375 -0.234375,0 C 4.171875,-1.4375 4.109375,-1 4,-0.84375 3.9375,-0.765625 3.28125,-0.765625 3.0625,-0.765625 l -1.796875,0 1.0625,-1.03125 c 1.546875,-1.375 2.140625,-1.90625 2.140625,-2.90625 0,-1.140625 -0.890625,-1.9375 -2.109375,-1.9375 -1.125,0 -1.859375,0.921875 -1.859375,1.8125 0,0.546875 0.5,0.546875 0.53125,0.546875 0.171875,0 0.515625,-0.109375 0.515625,-0.53125 0,-0.25 -0.1875,-0.515625 -0.53125,-0.515625 -0.078125,0 -0.09375,0 -0.125,0.015625 0.21875,-0.65625 0.765625,-1.015625 1.34375,-1.015625 0.90625,0 1.328125,0.8125 1.328125,1.625 C 3.5625,-3.90625 3.078125,-3.125 2.515625,-2.5 l -1.90625,2.125 C 0.5,-0.265625 0.5,-0.234375 0.5,0 L 4.203125,0 4.46875,-1.734375 z"
             style="stroke:none" />
        </symbol>
        <symbol
           id="textext-e00aab29-3"
           overflow="visible"
           style="overflow:visible">
          <path
             id="path22302"
             d="m 2.890625,-3.515625 c 0.8125,-0.265625 1.390625,-0.953125 1.390625,-1.75 0,-0.8125 -0.875,-1.375 -1.828125,-1.375 -1,0 -1.765625,0.59375 -1.765625,1.359375 0,0.328125 0.21875,0.515625 0.515625,0.515625 0.296875,0 0.5,-0.21875 0.5,-0.515625 0,-0.484375 -0.46875,-0.484375 -0.609375,-0.484375 0.296875,-0.5 0.953125,-0.625 1.3125,-0.625 0.421875,0 0.96875,0.21875 0.96875,1.109375 0,0.125 -0.03125,0.703125 -0.28125,1.140625 C 2.796875,-3.65625 2.453125,-3.625 2.203125,-3.625 2.125,-3.609375 1.890625,-3.59375 1.8125,-3.59375 c -0.078125,0.015625 -0.140625,0.03125 -0.140625,0.125 0,0.109375 0.0625,0.109375 0.234375,0.109375 l 0.4375,0 c 0.8125,0 1.1875,0.671875 1.1875,1.65625 0,1.359375 -0.6875,1.640625 -1.125,1.640625 -0.4375,0 -1.1875,-0.171875 -1.53125,-0.75 0.34375,0.046875 0.65625,-0.171875 0.65625,-0.546875 0,-0.359375 -0.265625,-0.5625 -0.546875,-0.5625 -0.25,0 -0.5625,0.140625 -0.5625,0.578125 0,0.90625 0.921875,1.5625 2.015625,1.5625 1.21875,0 2.125,-0.90625 2.125,-1.921875 0,-0.8125 -0.640625,-1.59375 -1.671875,-1.8125 z"
             style="stroke:none" />
        </symbol>
        <symbol
           id="textext-e00aab29-4"
           overflow="visible"
           style="overflow:visible">
          <path
             id="path22305"
             d=""
             style="stroke:none" />
        </symbol>
        <symbol
           id="textext-e00aab29-5"
           overflow="visible"
           style="overflow:visible">
          <path
             id="path22308"
             d="M 4.828125,-4.09375 4,-6.078125 c -0.03125,-0.078125 -0.046875,-0.125 -0.046875,-0.125 0,-0.0625 0.15625,-0.25 0.578125,-0.296875 0.109375,-0.015625 0.203125,-0.015625 0.203125,-0.1875 0,-0.125 -0.125,-0.125 -0.15625,-0.125 -0.40625,0 -0.828125,0.03125 -1.25,0.03125 -0.25,0 -0.859375,-0.03125 -1.109375,-0.03125 -0.0625,0 -0.1875,0 -0.1875,0.203125 C 2.03125,-6.5 2.140625,-6.5 2.265625,-6.5 c 0.59375,0 0.65625,0.09375 0.75,0.3125 L 4.1875,-3.40625 2.078125,-1.140625 c -0.046875,0.046875 -0.0625,0.0625 -0.125,0.109375 C 1.46875,-0.5 1,-0.34375 0.484375,-0.3125 c -0.125,0.015625 -0.21875,0.015625 -0.21875,0.203125 0,0.015625 0,0.109375 0.140625,0.109375 0.296875,0 0.625,-0.03125 0.921875,-0.03125 C 1.703125,-0.03125 2.09375,0 2.453125,0 2.515625,0 2.625,0 2.625,-0.203125 2.625,-0.296875 2.53125,-0.3125 2.515625,-0.3125 c -0.09375,0 -0.40625,-0.03125 -0.40625,-0.3125 0,-0.15625 0.15625,-0.3125 0.265625,-0.4375 L 3.40625,-2.140625 C 3.703125,-2.46875 4.09375,-2.875 4.296875,-3.125 l 1,2.390625 c 0.046875,0.109375 0.0625,0.109375 0.0625,0.140625 0,0.078125 -0.203125,0.25 -0.578125,0.28125 C 4.671875,-0.296875 4.578125,-0.296875 4.578125,-0.125 4.578125,0 4.6875,0 4.71875,0 5,0 5.703125,-0.03125 5.984375,-0.03125 6.234375,-0.03125 6.84375,0 7.09375,0 c 0.0625,0 0.1875,0 0.1875,-0.1875 0,-0.125 -0.109375,-0.125 -0.1875,-0.125 -0.65625,0 -0.6875,-0.03125 -0.859375,-0.4375 C 5.859375,-1.671875 5.1875,-3.234375 4.953125,-3.828125 5.625,-4.53125 6.671875,-5.71875 7,-5.984375 7.28125,-6.234375 7.671875,-6.46875 8.265625,-6.5 c 0.125,-0.015625 0.21875,-0.015625 0.21875,-0.203125 0,0 0,-0.109375 -0.125,-0.109375 -0.296875,0 -0.640625,0.03125 -0.9375,0.03125 -0.375,0 -0.75,-0.03125 -1.109375,-0.03125 -0.0625,0 -0.1875,0 -0.1875,0.203125 0,0.0625 0.046875,0.09375 0.109375,0.109375 0.09375,0.015625 0.40625,0.03125 0.40625,0.3125 0,0.140625 -0.109375,0.265625 -0.1875,0.359375 l -1.625,1.734375 z"
             style="stroke:none" />
        </symbol>
      </g>
    </defs>
    <inkscape:perspective
       id="perspective3129"
       inkscape:persp3d-origin="0.5 : 0.33333333 : 1"
       inkscape:vp_z="1 : 0.5 : 1"
       inkscape:vp_y="0 : 1000 : 0"
       inkscape:vp_x="0 : 0.5 : 1"
       sodipodi:type="inkscape:persp3d" />
    <inkscape:perspective
       id="perspective3183"
       inkscape:persp3d-origin="0.5 : 0.33333333 : 1"
       inkscape:vp_z="1 : 0.5 : 1"
       inkscape:vp_y="0 : 1000 : 0"
       inkscape:vp_x="0 : 0.5 : 1"
       sodipodi:type="inkscape:persp3d" />
    <inkscape:perspective
       id="perspective3277"
       inkscape:persp3d-origin="0.5 : 0.33333333 : 1"
       inkscape:vp_z="1 : 0.5 : 1"
       inkscape:vp_y="0 : 1000 : 0"
       inkscape:vp_x="0 : 0.5 : 1"
       sodipodi:type="inkscape:persp3d" />
    <inkscape:perspective
       id="perspective3359"
       inkscape:persp3d-origin="0.5 : 0.33333333 : 1"
       inkscape:vp_z="1 : 0.5 : 1"
       inkscape:vp_y="0 : 1000 : 0"
       inkscape:vp_x="0 : 0.5 : 1"
       sodipodi:type="inkscape:persp3d" />
    <inkscape:perspective
       id="perspective3381"
       inkscape:persp3d-origin="0.5 : 0.33333333 : 1"
       inkscape:vp_z="1 : 0.5 : 1"
       inkscape:vp_y="0 : 1000 : 0"
       inkscape:vp_x="0 : 0.5 : 1"
       sodipodi:type="inkscape:persp3d" />
    <inkscape:perspective
       id="perspective3403"
       inkscape:persp3d-origin="0.5 : 0.33333333 : 1"
       inkscape:vp_z="1 : 0.5 : 1"
       inkscape:vp_y="0 : 1000 : 0"
       inkscape:vp_x="0 : 0.5 : 1"
       sodipodi:type="inkscape:persp3d" />
    <inkscape:perspective
       id="perspective3403-4"
       inkscape:persp3d-origin="0.5 : 0.33333333 : 1"
       inkscape:vp_z="1 : 0.5 : 1"
       inkscape:vp_y="0 : 1000 : 0"
       inkscape:vp_x="0 : 0.5 : 1"
       sodipodi:type="inkscape:persp3d" />
    <inkscape:perspective
       id="perspective3434"
       inkscape:persp3d-origin="0.5 : 0.33333333 : 1"
       inkscape:vp_z="1 : 0.5 : 1"
       inkscape:vp_y="0 : 1000 : 0"
       inkscape:vp_x="0 : 0.5 : 1"
       sodipodi:type="inkscape:persp3d" />
    <inkscape:perspective
       id="perspective3456"
       inkscape:persp3d-origin="0.5 : 0.33333333 : 1"
       inkscape:vp_z="1 : 0.5 : 1"
       inkscape:vp_y="0 : 1000 : 0"
       inkscape:vp_x="0 : 0.5 : 1"
       sodipodi:type="inkscape:persp3d" />
    <inkscape:perspective
       id="perspective3538"
       inkscape:persp3d-origin="0.5 : 0.33333333 : 1"
       inkscape:vp_z="1 : 0.5 : 1"
       inkscape:vp_y="0 : 1000 : 0"
       inkscape:vp_x="0 : 0.5 : 1"
       sodipodi:type="inkscape:persp3d" />
    <inkscape:perspective
       id="perspective4348"
       inkscape:persp3d-origin="0.5 : 0.33333333 : 1"
       inkscape:vp_z="1 : 0.5 : 1"
       inkscape:vp_y="0 : 1000 : 0"
       inkscape:vp_x="0 : 0.5 : 1"
       sodipodi:type="inkscape:persp3d" />
    <inkscape:perspective
       id="perspective4430"
       inkscape:persp3d-origin="0.5 : 0.33333333 : 1"
       inkscape:vp_z="1 : 0.5 : 1"
       inkscape:vp_y="0 : 1000 : 0"
       inkscape:vp_x="0 : 0.5 : 1"
       sodipodi:type="inkscape:persp3d" />
    <inkscape:perspective
       id="perspective4512"
       inkscape:persp3d-origin="0.5 : 0.33333333 : 1"
       inkscape:vp_z="1 : 0.5 : 1"
       inkscape:vp_y="0 : 1000 : 0"
       inkscape:vp_x="0 : 0.5 : 1"
       sodipodi:type="inkscape:persp3d" />
    <inkscape:perspective
       sodipodi:type="inkscape:persp3d"
       inkscape:vp_x="0 : 0.5 : 1"
       inkscape:vp_y="0 : 1000 : 0"
       inkscape:vp_z="1 : 0.5 : 1"
       inkscape:persp3d-origin="0.5 : 0.33333333 : 1"
       id="perspective3113" />
    <inkscape:perspective
       sodipodi:type="inkscape:persp3d"
       inkscape:vp_x="0 : 0.5 : 1"
       inkscape:vp_y="0 : 1000 : 0"
       inkscape:vp_z="1 : 0.5 : 1"
       inkscape:persp3d-origin="0.5 : 0.33333333 : 1"
       id="perspective5214" />
  </defs>
  <metadata
     id="metadata7">
    <rdf:RDF>
      <cc:Work
         rdf:about="">
        <dc:format>image/svg+xml</dc:format>
        <dc:type
           rdf:resource="http://purl.org/dc/dcmitype/StillImage" />
        <dc:title></dc:title>
      </cc:Work>
    </rdf:RDF>
  </metadata>
  <g
     inkscape:label="Layer 1"
     inkscape:groupmode="layer"
     id="layer1"
     transform="translate(-219.50963,-166.75663)">
    <path
       inkscape:connector-curvature="0"
       style="fill:none;stroke:#ff0000;stroke-width:0.99999994px;stroke-linecap:butt;stroke-linejoin:miter;stroke-miterlimit:4;stroke-opacity:1;stroke-dasharray:none;stroke-dashoffset:0;marker:none;visibility:visible;display:inline;overflow:visible;enable-background:accumulate"
       d="M 419.50959,228.75779 529.50963,273.7578"
       id="path3379-25-9" />
    <path
       inkscape:connector-curvature="0"
       style="fill:none;stroke:#ff0000;stroke-width:0.99999994px;stroke-linecap:butt;stroke-linejoin:miter;stroke-miterlimit:4;stroke-opacity:1;stroke-dasharray:none;stroke-dashoffset:0;marker:none;visibility:visible;display:inline;overflow:visible;enable-background:accumulate"
       d="m 419.50965,228.75781 165,44.99999"
       id="path3379-25-7" />
    <path
       inkscape:connector-curvature="0"
       style="fill:none;stroke:#ff0000;stroke-width:0.99999994px;stroke-linecap:butt;stroke-linejoin:miter;stroke-miterlimit:4;stroke-opacity:1;stroke-dasharray:none;stroke-dashoffset:0;marker:none;visibility:visible;display:inline;overflow:visible;enable-background:accumulate"
       d="M 289.50961,228.75779 399.50965,273.7578"
       id="path3379-25" />
    <path
       inkscape:connector-curvature="0"
       id="path3323-9"
       d="m 504.32255,227.37554 160,0"
       style="fill:none;fill-opacity:1;fill-rule:evenodd;stroke:#1d1b1b;stroke-width:1;stroke-linecap:butt;stroke-linejoin:miter;stroke-miterlimit:4;stroke-opacity:1;stroke-dasharray:2, 6;stroke-dashoffset:0;marker:none;visibility:visible;display:inline;overflow:visible;enable-background:accumulate" />
    <path
       inkscape:connector-curvature="0"
       id="path3323-1"
       d="m 289.50963,227.53162 164.81292,0"
       style="fill:none;fill-opacity:1;fill-rule:evenodd;stroke:#1d1b1b;stroke-width:1;stroke-linecap:butt;stroke-linejoin:miter;stroke-miterlimit:4;stroke-opacity:1;stroke-dasharray:2, 6;stroke-dashoffset:0;marker:none;visibility:visible;display:inline;overflow:visible;enable-background:accumulate" />
    <path
       style="fill:#161414;fill-opacity:1;fill-rule:evenodd;stroke:#1d1b1b;stroke-width:0.99999994px;stroke-linecap:butt;stroke-linejoin:miter;stroke-miterlimit:4;stroke-opacity:1;stroke-dasharray:none;stroke-dashoffset:0;marker:none;visibility:visible;display:inline;overflow:visible;enable-background:accumulate"
       d="m 664.50962,228.75782 -154.99998,90"
       id="path3379-2-9"
       inkscape:connector-curvature="0" />
    <path
       style="fill:#161414;fill-opacity:1;fill-rule:evenodd;stroke:#1d1b1b;stroke-width:0.99999988px;stroke-linecap:butt;stroke-linejoin:miter;stroke-miterlimit:4;stroke-opacity:1;stroke-dasharray:none;stroke-dashoffset:0;marker:none;visibility:visible;display:inline;overflow:visible;enable-background:accumulate"
       d="m 420,227.36217 90.00002,90"
       id="path3379-2-4" />
    <path
       style="fill:#161414;fill-opacity:1;fill-rule:evenodd;stroke:#1d1b1b;stroke-width:0.99999988px;stroke-linecap:butt;stroke-linejoin:miter;stroke-miterlimit:4;stroke-opacity:1;stroke-dasharray:none;stroke-dashoffset:0;marker:none;visibility:visible;display:inline;overflow:visible;enable-background:accumulate"
       d="m 544.99998,227.36217 -34.99998,90"
       id="path3379-2" />
    <path
       style="fill:#161414;fill-opacity:1;fill-rule:evenodd;stroke:#1d1b1b;stroke-width:0.99999994px;stroke-linecap:butt;stroke-linejoin:miter;stroke-miterlimit:4;stroke-opacity:1;stroke-dasharray:none;stroke-dashoffset:0;marker:none;visibility:visible;display:inline;overflow:visible;enable-background:accumulate"
       d="M 287.52953,227.90551 385,317.36218"
       id="path3379-9" />
    <text
       xml:space="preserve"
       style="font-size:40px;font-style:italic;font-weight:normal;line-height:125%;fill:#000000;fill-opacity:1;stroke:none;font-family:Bitstream Vera Sans;-inkscape-font-specification:Sans Italic"
       x="178.29192"
       y="114.94062"
       id="text3179"
       sodipodi:linespacing="125%"><tspan
         sodipodi:role="line"
         id="tspan3181"
         x="178.29192"
         y="114.94062"
         style="font-size:32px;font-style:oblique;font-variant:normal;font-weight:normal;font-stretch:normal;text-align:start;line-height:125%;writing-mode:lr-tb;text-anchor:start;font-family:Bitstream Vera Sans;-inkscape-font-specification:Bitstream Vera Sans Oblique" /></text>
    <text
       xml:space="preserve"
       style="font-size:40px;font-style:italic;font-weight:normal;fill:#000000;fill-opacity:1;stroke:none;font-family:Bitstream Vera Sans;-inkscape-font-specification:Sans Italic"
       x="284.35794"
       y="110.90001"
       id="text3183"><tspan
         sodipodi:role="line"
         id="tspan3185"
         x="284.35794"
         y="110.90001" /></text>
    <path
       inkscape:connector-curvature="0"
       style="fill:#161414;fill-opacity:1;fill-rule:evenodd;stroke:#1d1b1b;stroke-width:1px;stroke-linecap:butt;stroke-linejoin:miter;stroke-miterlimit:4;stroke-opacity:1;stroke-dasharray:none;stroke-dashoffset:0;marker:none;visibility:visible;display:inline;overflow:visible;enable-background:accumulate"
       d="m 229.97196,227.48988 59.53766,0"
       id="path3323" />
    <path
       sodipodi:type="arc"
       style="fill:#161414;fill-opacity:1;stroke:#1d1b1b;stroke-width:2.54999995;stroke-miterlimit:4;stroke-opacity:1;stroke-dasharray:none"
       id="path3329"
       sodipodi:cx="188.64598"
       sodipodi:cy="120.749"
       sodipodi:rx="3.2829957"
       sodipodi:ry="3.2829957"
       d="m 191.92898,120.749 c 0,1.81315 -1.46985,3.283 -3.283,3.283 -1.81315,0 -3.28299,-1.46985 -3.28299,-3.283 0,-1.81315 1.46984,-3.283 3.28299,-3.283 1.81315,0 3.283,1.46985 3.283,3.283 z"
       transform="translate(36.851972,106.74088)" />
    <path
       style="fill:#161414;fill-opacity:1;fill-rule:evenodd;stroke:#1d1b1b;stroke-width:0.99999994px;stroke-linecap:butt;stroke-linejoin:miter;stroke-miterlimit:4;stroke-opacity:1;stroke-dasharray:none;stroke-dashoffset:0;marker:none;visibility:visible;display:inline;overflow:visible;enable-background:accumulate"
       d="m 415,222.36219 -30.00001,95"
       id="path3379" />
    <path
       sodipodi:type="arc"
       style="fill:#161414;fill-opacity:1;stroke:#1d1b1b;stroke-width:2.54999995;stroke-miterlimit:4;stroke-opacity:1;stroke-dasharray:none"
       id="path3387"
       sodipodi:cx="188.64598"
       sodipodi:cy="120.749"
       sodipodi:rx="3.2829957"
       sodipodi:ry="3.2829957"
       d="m 191.92898,120.749 c 0,1.81315 -1.46985,3.283 -3.283,3.283 -1.81315,0 -3.28299,-1.46985 -3.28299,-3.283 0,-1.81315 1.46984,-3.283 3.28299,-3.283 1.81315,0 3.283,1.46985 3.283,3.283 z"
       transform="translate(148.46382,152.61318)" />
    <path
       sodipodi:type="arc"
       style="fill:#161414;fill-opacity:1;stroke:#1d1b1b;stroke-width:2.54999995;stroke-miterlimit:4;stroke-opacity:1;stroke-dasharray:none"
       id="path3389"
       sodipodi:cx="188.64598"
       sodipodi:cy="120.749"
       sodipodi:rx="3.2829957"
       sodipodi:ry="3.2829957"
       d="m 191.92898,120.749 c 0,1.81315 -1.46985,3.283 -3.283,3.283 -1.81315,0 -3.28299,-1.46985 -3.28299,-3.283 0,-1.81315 1.46984,-3.283 3.28299,-3.283 1.81315,0 3.283,1.46985 3.283,3.283 z"
       transform="translate(210.5101,152.61318)" />
    <g
       transform="matrix(3.1193946,0,0,2.0801114,-539.14926,-153.76204)"
       style="fill:#000000;fill-opacity:1"
       id="g22319" />
    <path
       sodipodi:type="arc"
       style="fill:#8080ff;fill-opacity:1;stroke:#1d1b1b;stroke-width:1;stroke-miterlimit:4;stroke-opacity:1;stroke-dasharray:none"
       id="path3325"
       sodipodi:cx="300.52039"
       sodipodi:cy="121.50661"
       sodipodi:rx="10.606602"
       sodipodi:ry="10.606602"
       d="m 311.12699,121.50661 c 0,5.85786 -4.74874,10.6066 -10.6066,10.6066 -5.85787,0 -10.60661,-4.74874 -10.60661,-10.6066 0,-5.85787 4.74874,-10.6066 10.60661,-10.6066 5.85786,0 10.6066,4.74873 10.6066,10.6066 z"
       transform="translate(-11.036353,105.98328)" />
    <path
       sodipodi:type="arc"
       style="fill:#8080ff;fill-opacity:1;stroke:#1d1b1b;stroke-width:1;stroke-miterlimit:4;stroke-opacity:1;stroke-dasharray:none"
       id="path3327"
       sodipodi:cx="300.52039"
       sodipodi:cy="121.50661"
       sodipodi:rx="10.606602"
       sodipodi:ry="10.606602"
       d="m 311.12699,121.50661 c 0,5.85786 -4.74874,10.6066 -10.6066,10.6066 -5.85787,0 -10.60661,-4.74874 -10.60661,-10.6066 0,-5.85787 4.74874,-10.6066 10.60661,-10.6066 5.85786,0 10.6066,4.74873 10.6066,10.6066 z"
       transform="translate(116.93575,105.98328)" />
    <path
       sodipodi:type="arc"
       style="fill:#8080ff;fill-opacity:1;stroke:#1d1b1b;stroke-width:1;stroke-miterlimit:4;stroke-opacity:1;stroke-dasharray:none"
       id="path3335"
       sodipodi:cx="300.52039"
       sodipodi:cy="121.50661"
       sodipodi:rx="10.606602"
       sodipodi:ry="10.606602"
       d="m 311.12699,121.50661 c 0,5.85786 -4.74874,10.6066 -10.6066,10.6066 -5.85787,0 -10.60661,-4.74874 -10.60661,-10.6066 0,-5.85787 4.74874,-10.6066 10.60661,-10.6066 5.85786,0 10.6066,4.74873 10.6066,10.6066 z"
       transform="translate(244.90789,105.98328)" />
    <path
       sodipodi:type="arc"
       style="fill:#f68585;fill-opacity:1;stroke:#1d1b1b;stroke-width:1;stroke-miterlimit:4;stroke-opacity:1;stroke-dasharray:none"
       id="path3381"
       sodipodi:cx="300.52039"
       sodipodi:cy="121.50661"
       sodipodi:rx="10.606602"
       sodipodi:ry="10.606602"
       d="m 311.12699,121.50661 c 0,5.85786 -4.74874,10.6066 -10.6066,10.6066 -5.85787,0 -10.60661,-4.74874 -10.60661,-10.6066 0,-5.85787 4.74874,-10.6066 10.60661,-10.6066 5.85786,0 10.6066,4.74873 10.6066,10.6066 z"
       transform="translate(84.716945,196.1446)" />
    <path
       sodipodi:type="arc"
       style="fill:#8080ff;fill-opacity:1;stroke:#1d1b1b;stroke-width:1;stroke-miterlimit:4;stroke-opacity:1;stroke-dasharray:none"
       id="path3335-4"
       sodipodi:cx="300.52039"
       sodipodi:cy="121.50661"
       sodipodi:rx="10.606602"
       sodipodi:ry="10.606602"
       d="m 311.12699,121.50661 c 0,5.85786 -4.74874,10.6066 -10.6066,10.6066 -5.85787,0 -10.60661,-4.74874 -10.60661,-10.6066 0,-5.85787 4.74874,-10.6066 10.60661,-10.6066 5.85786,0 10.6066,4.74873 10.6066,10.6066 z"
       transform="translate(362.90789,105.98329)" />
    <path
       sodipodi:type="arc"
       style="fill:#161414;fill-opacity:1;stroke:#1d1b1b;stroke-width:2.54999995;stroke-miterlimit:4;stroke-opacity:1;stroke-dasharray:none"
       id="path3389-3"
       sodipodi:cx="188.64598"
       sodipodi:cy="120.749"
       sodipodi:rx="3.2829957"
       sodipodi:ry="3.2829957"
       d="m 191.92898,120.749 c 0,1.81315 -1.46985,3.283 -3.283,3.283 -1.81315,0 -3.28299,-1.46985 -3.28299,-3.283 0,-1.81315 1.46984,-3.283 3.28299,-3.283 1.81315,0 3.283,1.46985 3.283,3.283 z"
       transform="translate(339.35402,152.61318)" />
    <path
       sodipodi:type="arc"
       style="fill:#f68585;fill-opacity:1;stroke:#1d1b1b;stroke-width:1;stroke-miterlimit:4;stroke-opacity:1;stroke-dasharray:none"
       id="path3381-5"
       sodipodi:cx="300.52039"
       sodipodi:cy="121.50661"
       sodipodi:rx="10.606602"
       sodipodi:ry="10.606602"
       d="m 311.12699,121.50661 c 0,5.85786 -4.74874,10.6066 -10.6066,10.6066 -5.85787,0 -10.60661,-4.74874 -10.60661,-10.6066 0,-5.85787 4.74874,-10.6066 10.60661,-10.6066 5.85786,0 10.6066,4.74873 10.6066,10.6066 z"
       transform="translate(209.71695,196.1446)" />
    <path
       sodipodi:type="arc"
       style="fill:#161414;fill-opacity:1;stroke:#1d1b1b;stroke-width:2.54999995;stroke-miterlimit:4;stroke-opacity:1;stroke-dasharray:none"
       id="path3389-3-8"
       sodipodi:cx="188.64598"
       sodipodi:cy="120.749"
       sodipodi:rx="3.2829957"
       sodipodi:ry="3.2829957"
       d="m 191.92898,120.749 c 0,1.81315 -1.46985,3.283 -3.283,3.283 -1.81315,0 -3.28299,-1.46985 -3.28299,-3.283 0,-1.81315 1.46984,-3.283 3.28299,-3.283 1.81315,0 3.283,1.46985 3.283,3.283 z"
       transform="translate(276.35402,152.61319)" />
    <g
       ns0:text="$p$"
       ns0:preamble=""
       transform="matrix(1.8702703,0,0,1.8461537,-197.78416,-31.501965)"
       id="g3478">
      <defs
         id="defs3480">
        <g
           id="g3482">
          <symbol
             style="overflow:visible"
             overflow="visible"
             id="textext-332a733f-0">
            <path
               style="stroke:none"
               d=""
               id="path3485" />
          </symbol>
          <symbol
             style="overflow:visible"
             overflow="visible"
             id="textext-332a733f-1">
            <path
               style="stroke:none"
               d="M 0.453125,1.21875 C 0.375,1.5625 0.34375,1.625 -0.09375,1.625 c -0.109375,0 -0.21875,0 -0.21875,0.1875 0,0.078125 0.046875,0.125 0.125,0.125 0.265625,0 0.5625,-0.03125 0.828125,-0.03125 0.34375,0 0.671875,0.03125 1,0.03125 0.046875,0 0.171875,0 0.171875,-0.203125 C 1.8125,1.625 1.71875,1.625 1.578125,1.625 c -0.5,0 -0.5,-0.0625 -0.5,-0.15625 0,-0.125 0.421875,-1.75 0.484375,-2 0.125,0.296875 0.40625,0.640625 0.921875,0.640625 1.15625,0 2.40625,-1.453125 2.40625,-2.921875 0,-0.9375 -0.578125,-1.59375 -1.328125,-1.59375 -0.5,0 -0.984375,0.359375 -1.3125,0.75 -0.09375,-0.546875 -0.53125,-0.75 -0.890625,-0.75 -0.46875,0 -0.65625,0.390625 -0.734375,0.5625 C 0.4375,-3.5 0.3125,-2.90625 0.3125,-2.875 c 0,0.109375 0.09375,0.109375 0.109375,0.109375 0.109375,0 0.109375,-0.015625 0.171875,-0.234375 0.171875,-0.703125 0.375,-1.1875 0.734375,-1.1875 0.171875,0 0.3125,0.078125 0.3125,0.453125 0,0.234375 -0.03125,0.34375 -0.078125,0.515625 l -1.109375,4.4375 z m 1.75,-4.328125 C 2.265625,-3.375 2.546875,-3.65625 2.71875,-3.8125 c 0.359375,-0.296875 0.640625,-0.375 0.8125,-0.375 0.390625,0 0.640625,0.34375 0.640625,0.9375 0,0.59375 -0.328125,1.734375 -0.515625,2.109375 -0.34375,0.703125 -0.8125,1.03125 -1.1875,1.03125 C 1.8125,-0.109375 1.6875,-0.9375 1.6875,-1 c 0,-0.015625 0,-0.03125 0.03125,-0.15625 l 0.484375,-1.953125 z m 0,0"
               id="path3488" />
          </symbol>
        </g>
      </defs>
      <g
         id="textext-332a733f-2">
        <g
           style="fill:#000000;fill-opacity:1"
           id="g3491">
          <use
             height="135.91847"
             width="629.03485"
             xlink:href="#textext-332a733f-1"
             x="223.43201"
             y="134.765"
             id="use3493" />
        </g>
      </g>
    </g>
    <g
       id="g4151"
       transform="matrix(1.8702703,0,0,1.8461537,-138.41175,-36.745254)"
       ns0:preamble=""
       ns0:text="$x_0$">
      <defs
         id="defs4153">
        <g
           id="g4155">
          <symbol
             style="overflow:visible"
             id="textext-83331c2f-0"
             overflow="visible">
            <path
               id="path4158"
               d=""
               style="stroke:none" />
          </symbol>
          <symbol
             style="overflow:visible"
             id="textext-83331c2f-1"
             overflow="visible">
            <path
               id="path4161"
               d="M 3.328125,-3.015625 C 3.390625,-3.265625 3.625,-4.1875 4.3125,-4.1875 c 0.046875,0 0.296875,0 0.5,0.125 C 4.53125,-4 4.34375,-3.765625 4.34375,-3.515625 c 0,0.15625 0.109375,0.34375 0.375,0.34375 0.21875,0 0.53125,-0.171875 0.53125,-0.578125 0,-0.515625 -0.578125,-0.65625 -0.921875,-0.65625 -0.578125,0 -0.921875,0.53125 -1.046875,0.75 -0.25,-0.65625 -0.78125,-0.75 -1.078125,-0.75 -1.03125,0 -1.609375,1.28125 -1.609375,1.53125 0,0.109375 0.109375,0.109375 0.125,0.109375 0.078125,0 0.109375,-0.03125 0.125,-0.109375 0.34375,-1.0625 1,-1.3125 1.34375,-1.3125 0.1875,0 0.53125,0.09375 0.53125,0.671875 0,0.3125 -0.171875,0.96875 -0.53125,2.375 -0.15625,0.609375 -0.515625,1.03125 -0.953125,1.03125 -0.0625,0 -0.28125,0 -0.5,-0.125 0.25,-0.0625 0.46875,-0.265625 0.46875,-0.546875 0,-0.265625 -0.21875,-0.34375 -0.359375,-0.34375 -0.3125,0 -0.546875,0.25 -0.546875,0.578125 0,0.453125 0.484375,0.65625 0.921875,0.65625 0.671875,0 1.03125,-0.703125 1.046875,-0.75 0.125,0.359375 0.484375,0.75 1.078125,0.75 1.03125,0 1.59375,-1.28125 1.59375,-1.53125 0,-0.109375 -0.078125,-0.109375 -0.109375,-0.109375 -0.09375,0 -0.109375,0.046875 -0.140625,0.109375 -0.328125,1.078125 -1,1.3125 -1.3125,1.3125 -0.390625,0 -0.546875,-0.3125 -0.546875,-0.65625 0,-0.21875 0.046875,-0.4375 0.15625,-0.875 l 0.34375,-1.375 z m 0,0"
               style="stroke:none" />
          </symbol>
          <symbol
             style="overflow:visible"
             id="textext-83331c2f-2"
             overflow="visible">
            <path
               id="path4164"
               d=""
               style="stroke:none" />
          </symbol>
          <symbol
             style="overflow:visible"
             id="textext-83331c2f-3"
             overflow="visible">
            <path
               id="path4167"
               d="M 3.59375,-2.21875 C 3.59375,-2.984375 3.5,-3.546875 3.1875,-4.03125 2.96875,-4.34375 2.53125,-4.625 1.984375,-4.625 c -1.625,0 -1.625,1.90625 -1.625,2.40625 0,0.5 0,2.359375 1.625,2.359375 1.609375,0 1.609375,-1.859375 1.609375,-2.359375 z M 1.984375,-0.0625 c -0.328125,0 -0.75,-0.1875 -0.890625,-0.75 C 1,-1.21875 1,-1.796875 1,-2.3125 1,-2.828125 1,-3.359375 1.09375,-3.734375 1.25,-4.28125 1.6875,-4.4375 1.984375,-4.4375 c 0.375,0 0.734375,0.234375 0.859375,0.640625 0.109375,0.375 0.125,0.875 0.125,1.484375 0,0.515625 0,1.03125 -0.09375,1.46875 -0.140625,0.640625 -0.609375,0.78125 -0.890625,0.78125 z m 0,0"
               style="stroke:none" />
          </symbol>
        </g>
      </defs>
      <g
         id="textext-83331c2f-4">
        <g
           id="g4170"
           style="fill:#000000;fill-opacity:1">
          <use
             height="135.91847"
             width="629.03485"
             id="use4172"
             y="134.765"
             x="223.43201"
             xlink:href="#textext-83331c2f-1" />
        </g>
        <g
           id="g4174"
           style="fill:#000000;fill-opacity:1">
          <use
             height="135.91847"
             width="629.03485"
             id="use4176"
             y="136.259"
             x="229.12601"
             xlink:href="#textext-83331c2f-3" />
        </g>
      </g>
    </g>
    <g
       id="g5497"
       transform="matrix(1.8702703,0,0,1.8461537,-11.061546,-36.437561)"
       ns0:preamble=""
       ns0:text="$x_1$">
      <defs
         id="defs5499">
        <g
           id="g5501">
          <symbol
             style="overflow:visible"
             id="textext-530540ae-0"
             overflow="visible">
            <path
               id="path5504"
               d=""
               style="stroke:none" />
          </symbol>
          <symbol
             style="overflow:visible"
             id="textext-530540ae-1"
             overflow="visible">
            <path
               id="path5507"
               d="M 3.328125,-3.015625 C 3.390625,-3.265625 3.625,-4.1875 4.3125,-4.1875 c 0.046875,0 0.296875,0 0.5,0.125 C 4.53125,-4 4.34375,-3.765625 4.34375,-3.515625 c 0,0.15625 0.109375,0.34375 0.375,0.34375 0.21875,0 0.53125,-0.171875 0.53125,-0.578125 0,-0.515625 -0.578125,-0.65625 -0.921875,-0.65625 -0.578125,0 -0.921875,0.53125 -1.046875,0.75 -0.25,-0.65625 -0.78125,-0.75 -1.078125,-0.75 -1.03125,0 -1.609375,1.28125 -1.609375,1.53125 0,0.109375 0.109375,0.109375 0.125,0.109375 0.078125,0 0.109375,-0.03125 0.125,-0.109375 0.34375,-1.0625 1,-1.3125 1.34375,-1.3125 0.1875,0 0.53125,0.09375 0.53125,0.671875 0,0.3125 -0.171875,0.96875 -0.53125,2.375 -0.15625,0.609375 -0.515625,1.03125 -0.953125,1.03125 -0.0625,0 -0.28125,0 -0.5,-0.125 0.25,-0.0625 0.46875,-0.265625 0.46875,-0.546875 0,-0.265625 -0.21875,-0.34375 -0.359375,-0.34375 -0.3125,0 -0.546875,0.25 -0.546875,0.578125 0,0.453125 0.484375,0.65625 0.921875,0.65625 0.671875,0 1.03125,-0.703125 1.046875,-0.75 0.125,0.359375 0.484375,0.75 1.078125,0.75 1.03125,0 1.59375,-1.28125 1.59375,-1.53125 0,-0.109375 -0.078125,-0.109375 -0.109375,-0.109375 -0.09375,0 -0.109375,0.046875 -0.140625,0.109375 -0.328125,1.078125 -1,1.3125 -1.3125,1.3125 -0.390625,0 -0.546875,-0.3125 -0.546875,-0.65625 0,-0.21875 0.046875,-0.4375 0.15625,-0.875 l 0.34375,-1.375 z m 0,0"
               style="stroke:none" />
          </symbol>
          <symbol
             style="overflow:visible"
             id="textext-530540ae-2"
             overflow="visible">
            <path
               id="path5510"
               d=""
               style="stroke:none" />
          </symbol>
          <symbol
             style="overflow:visible"
             id="textext-530540ae-3"
             overflow="visible">
            <path
               id="path5513"
               d="m 2.328125,-4.4375 c 0,-0.1875 0,-0.1875 -0.203125,-0.1875 -0.453125,0.4375 -1.078125,0.4375 -1.359375,0.4375 l 0,0.25 c 0.15625,0 0.625,0 1,-0.1875 l 0,3.546875 c 0,0.234375 0,0.328125 -0.6875,0.328125 l -0.265625,0 0,0.25 c 0.125,0 0.984375,-0.03125 1.234375,-0.03125 0.21875,0 1.09375,0.03125 1.25,0.03125 l 0,-0.25 -0.265625,0 c -0.703125,0 -0.703125,-0.09375 -0.703125,-0.328125 l 0,-3.859375 z m 0,0"
               style="stroke:none" />
          </symbol>
        </g>
      </defs>
      <g
         id="textext-530540ae-4">
        <g
           id="g5516"
           style="fill:#000000;fill-opacity:1">
          <use
             height="135.91847"
             width="629.03485"
             id="use5518"
             y="134.765"
             x="223.43201"
             xlink:href="#textext-530540ae-1" />
        </g>
        <g
           id="g5520"
           style="fill:#000000;fill-opacity:1">
          <use
             height="135.91847"
             width="629.03485"
             id="use5522"
             y="136.259"
             x="229.12601"
             xlink:href="#textext-530540ae-3" />
        </g>
      </g>
    </g>
    <path
       sodipodi:type="arc"
       style="fill:#161414;fill-opacity:1;stroke:#1d1b1b;stroke-width:2.54999995;stroke-miterlimit:4;stroke-opacity:1;stroke-dasharray:none"
       id="path3389-3-0"
       sodipodi:cx="188.64598"
       sodipodi:cy="120.749"
       sodipodi:rx="3.2829957"
       sodipodi:ry="3.2829957"
       d="m 191.92898,120.749 c 0,1.81315 -1.46985,3.283 -3.283,3.283 -1.81315,0 -3.28299,-1.46985 -3.28299,-3.283 0,-1.81315 1.46984,-3.283 3.28299,-3.283 1.81315,0 3.283,1.46985 3.283,3.283 z"
       transform="translate(397.58065,153.0088)" />
    <g
       ns0:text="$\\pi_1$"
       ns0:preamble=""
       transform="matrix(1.8702703,0,0,1.8461537,-64.166047,72.823721)"
       id="g4547">
      <defs
         id="defs4549">
        <g
           id="g4551">
          <symbol
             overflow="visible"
             id="textext-c2896129-0"
             style="overflow:visible">
            <path
               style="stroke:none"
               d="m 2.640625,-3.71875 1.125,0 C 3.4375,-2.25 3.34375,-1.8125 3.34375,-1.140625 c 0,0.140625 0,0.40625 0.078125,0.75 0.109375,0.4375 0.21875,0.5 0.359375,0.5 0.203125,0 0.421875,-0.171875 0.421875,-0.375 0,-0.0625 0,-0.078125 -0.0625,-0.21875 -0.296875,-0.71875 -0.296875,-1.375 -0.296875,-1.65625 0,-0.515625 0.078125,-1.0625 0.1875,-1.578125 l 1.125,0 c 0.140625,0 0.5,0 0.5,-0.34375 0,-0.234375 -0.21875,-0.234375 -0.40625,-0.234375 l -3.34375,0 c -0.21875,0 -0.59375,0 -1.03125,0.46875 -0.34375,0.390625 -0.609375,0.84375 -0.609375,0.890625 0,0.015625 0,0.109375 0.125,0.109375 0.078125,0 0.09375,-0.046875 0.15625,-0.125 C 1.03125,-3.71875 1.609375,-3.71875 1.8125,-3.71875 l 0.5625,0 C 2.0625,-2.515625 1.53125,-1.3125 1.109375,-0.40625 1.03125,-0.25 1.03125,-0.234375 1.03125,-0.15625 c 0,0.1875 0.15625,0.265625 0.28125,0.265625 0.296875,0 0.375,-0.28125 0.5,-0.640625 C 1.953125,-1 1.953125,-1.015625 2.078125,-1.515625 z m 0,0"
               id="path4554"
               inkscape:connector-curvature="0" />
          </symbol>
          <symbol
             overflow="visible"
             id="textext-c2896129-1"
             style="overflow:visible">
            <path
               style="stroke:none"
               d="m 2.328125,-4.4375 c 0,-0.1875 0,-0.1875 -0.203125,-0.1875 -0.453125,0.4375 -1.078125,0.4375 -1.359375,0.4375 l 0,0.25 c 0.15625,0 0.625,0 1,-0.1875 l 0,3.546875 c 0,0.234375 0,0.328125 -0.6875,0.328125 l -0.265625,0 0,0.25 c 0.125,0 0.984375,-0.03125 1.234375,-0.03125 0.21875,0 1.09375,0.03125 1.25,0.03125 l 0,-0.25 -0.265625,0 c -0.703125,0 -0.703125,-0.09375 -0.703125,-0.328125 z m 0,0"
               id="path4557"
               inkscape:connector-curvature="0" />
          </symbol>
        </g>
      </defs>
      <g
         id="textext-c2896129-2">
        <g
           style="fill:#000000;fill-opacity:1"
           id="g4560">
          <use
             xlink:href="#textext-c2896129-0"
             x="223.43201"
             y="134.765"
             id="use4562"
             width="455.02524"
             height="162.00117" />
        </g>
        <g
           style="fill:#000000;fill-opacity:1"
           id="g4564">
          <use
             xlink:href="#textext-c2896129-1"
             x="229.11099"
             y="136.259"
             id="use4566"
             width="455.02524"
             height="162.00117" />
        </g>
      </g>
    </g>
    <g
       id="g5072"
       transform="matrix(1.8702703,0,0,1.8461537,60.833957,72.823717)"
       ns0:preamble=""
       ns0:text="$\\pi_2$">
      <defs
         id="defs5074">
        <g
           id="g5076">
          <symbol
             id="textext-95d9c9d0-0"
             overflow="visible"
             style="overflow:visible">
            <path
               id="path5079"
               d="m 2.640625,-3.71875 1.125,0 C 3.4375,-2.25 3.34375,-1.8125 3.34375,-1.140625 c 0,0.140625 0,0.40625 0.078125,0.75 0.109375,0.4375 0.21875,0.5 0.359375,0.5 0.203125,0 0.421875,-0.171875 0.421875,-0.375 0,-0.0625 0,-0.078125 -0.0625,-0.21875 -0.296875,-0.71875 -0.296875,-1.375 -0.296875,-1.65625 0,-0.515625 0.078125,-1.0625 0.1875,-1.578125 l 1.125,0 c 0.140625,0 0.5,0 0.5,-0.34375 0,-0.234375 -0.21875,-0.234375 -0.40625,-0.234375 l -3.34375,0 c -0.21875,0 -0.59375,0 -1.03125,0.46875 -0.34375,0.390625 -0.609375,0.84375 -0.609375,0.890625 0,0.015625 0,0.109375 0.125,0.109375 0.078125,0 0.09375,-0.046875 0.15625,-0.125 C 1.03125,-3.71875 1.609375,-3.71875 1.8125,-3.71875 l 0.5625,0 C 2.0625,-2.515625 1.53125,-1.3125 1.109375,-0.40625 1.03125,-0.25 1.03125,-0.234375 1.03125,-0.15625 c 0,0.1875 0.15625,0.265625 0.28125,0.265625 0.296875,0 0.375,-0.28125 0.5,-0.640625 C 1.953125,-1 1.953125,-1.015625 2.078125,-1.515625 z m 0,0"
               style="stroke:none"
               inkscape:connector-curvature="0" />
          </symbol>
          <symbol
             id="textext-95d9c9d0-1"
             overflow="visible"
             style="overflow:visible">
            <path
               id="path5082"
               d="m 3.515625,-1.265625 -0.234375,0 c -0.015625,0.15625 -0.09375,0.5625 -0.1875,0.625 -0.046875,0.046875 -0.578125,0.046875 -0.6875,0.046875 l -1.28125,0 c 0.734375,-0.640625 0.984375,-0.84375 1.390625,-1.171875 0.515625,-0.40625 1,-0.84375 1,-1.5 0,-0.84375 -0.734375,-1.359375 -1.625,-1.359375 -0.859375,0 -1.453125,0.609375 -1.453125,1.25 0,0.34375 0.296875,0.390625 0.375,0.390625 0.15625,0 0.359375,-0.125 0.359375,-0.375 0,-0.125 -0.046875,-0.375 -0.40625,-0.375 C 0.984375,-4.21875 1.453125,-4.375 1.78125,-4.375 c 0.703125,0 1.0625,0.546875 1.0625,1.109375 0,0.609375 -0.4375,1.078125 -0.65625,1.328125 L 0.515625,-0.265625 C 0.4375,-0.203125 0.4375,-0.1875 0.4375,0 l 2.875,0 z m 0,0"
               style="stroke:none"
               inkscape:connector-curvature="0" />
          </symbol>
        </g>
      </defs>
      <g
         id="textext-95d9c9d0-2">
        <g
           id="g5085"
           style="fill:#000000;fill-opacity:1">
          <use
             id="use5087"
             y="134.765"
             x="223.43201"
             xlink:href="#textext-95d9c9d0-0"
             width="455.02524"
             height="162.00117" />
        </g>
        <g
           id="g5089"
           style="fill:#000000;fill-opacity:1">
          <use
             id="use5091"
             y="136.259"
             x="229.11099"
             xlink:href="#textext-95d9c9d0-1"
             width="455.02524"
             height="162.00117" />
        </g>
      </g>
    </g>
    <path
       transform="translate(164.14664,106.78261)"
       d="m 191.92898,120.749 c 0,1.81315 -1.46985,3.283 -3.283,3.283 -1.81315,0 -3.28299,-1.46985 -3.28299,-3.283 0,-1.81315 1.46984,-3.283 3.28299,-3.283 1.81315,0 3.283,1.46985 3.283,3.283 z"
       sodipodi:ry="3.2829957"
       sodipodi:rx="3.2829957"
       sodipodi:cy="120.749"
       sodipodi:cx="188.64598"
       id="path3331"
       style="fill:#161414;fill-opacity:1;stroke:#1d1b1b;stroke-width:2.54999995;stroke-miterlimit:4;stroke-opacity:1;stroke-dasharray:none"
       sodipodi:type="arc" />
    <path
       transform="translate(416.11878,106.78261)"
       d="m 191.92898,120.749 c 0,1.81315 -1.46985,3.283 -3.283,3.283 -1.81315,0 -3.28299,-1.46985 -3.28299,-3.283 0,-1.81315 1.46984,-3.283 3.28299,-3.283 1.81315,0 3.283,1.46985 3.283,3.283 z"
       sodipodi:ry="3.2829957"
       sodipodi:rx="3.2829957"
       sodipodi:cy="120.749"
       sodipodi:cx="188.64598"
       id="path3333"
       style="fill:#161414;fill-opacity:1;stroke:#1d1b1b;stroke-width:2.54999995;stroke-miterlimit:4;stroke-opacity:1;stroke-dasharray:none"
       sodipodi:type="arc" />
    <path
       transform="matrix(0.23850053,0,0,0.23850053,423.54739,199.10522)"
       d="m 191.92898,120.749 c 0,1.81315 -1.46985,3.283 -3.283,3.283 -1.81315,0 -3.28299,-1.46985 -3.28299,-3.283 0,-1.81315 1.46984,-3.283 3.28299,-3.283 1.81315,0 3.283,1.46985 3.283,3.283 z"
       sodipodi:ry="3.2829957"
       sodipodi:rx="3.2829957"
       sodipodi:cy="120.749"
       sodipodi:cx="188.64598"
       id="path3563-2"
       style="fill:#161414;fill-opacity:1;stroke:#1d1b1b;stroke-width:10.69179916;stroke-miterlimit:4;stroke-opacity:1;stroke-dasharray:none"
       sodipodi:type="arc" />
    <path
       transform="matrix(0.23850053,0,0,0.23850053,444.33038,199.10522)"
       d="m 191.92898,120.749 c 0,1.81315 -1.46985,3.283 -3.283,3.283 -1.81315,0 -3.28299,-1.46985 -3.28299,-3.283 0,-1.81315 1.46984,-3.283 3.28299,-3.283 1.81315,0 3.283,1.46985 3.283,3.283 z"
       sodipodi:ry="3.2829957"
       sodipodi:rx="3.2829957"
       sodipodi:cy="120.749"
       sodipodi:cx="188.64598"
       id="path3563-2-3"
       style="fill:#161414;fill-opacity:1;stroke:#1d1b1b;stroke-width:10.69179916;stroke-miterlimit:4;stroke-opacity:1;stroke-dasharray:none"
       sodipodi:type="arc" />
    <path
       transform="matrix(0.23850053,0,0,0.23850053,433.93891,199.10522)"
       d="m 191.92898,120.749 c 0,1.81315 -1.46985,3.283 -3.283,3.283 -1.81315,0 -3.28299,-1.46985 -3.28299,-3.283 0,-1.81315 1.46984,-3.283 3.28299,-3.283 1.81315,0 3.283,1.46985 3.283,3.283 z"
       sodipodi:ry="3.2829957"
       sodipodi:rx="3.2829957"
       sodipodi:cy="120.749"
       sodipodi:cx="188.64598"
       id="path3563-2-6"
       style="fill:#161414;fill-opacity:1;stroke:#1d1b1b;stroke-width:10.69179916;stroke-miterlimit:4;stroke-opacity:1;stroke-dasharray:none"
       sodipodi:type="arc" />
    <g
       id="g4828"
       transform="matrix(1.8702703,0,0,1.8461537,-72.326495,-29.424679)"
       ns0:preamble=""
       ns0:text="$u_1$">
      <defs
         id="defs4830">
        <g
           id="g4832">
          <symbol
             id="textext-b345ca0b-0"
             overflow="visible"
             style="overflow:visible">
            <path
               inkscape:connector-curvature="0"
               id="path4835"
               d=""
               style="stroke:none" />
          </symbol>
          <symbol
             id="textext-b345ca0b-1"
             overflow="visible"
             style="overflow:visible">
            <path
               inkscape:connector-curvature="0"
               id="path4838"
               d="M 3.484375,-0.5625 C 3.59375,-0.15625 3.953125,0.109375 4.375,0.109375 4.71875,0.109375 4.953125,-0.125 5.109375,-0.4375 5.28125,-0.796875 5.40625,-1.40625 5.40625,-1.421875 c 0,-0.109375 -0.078125,-0.109375 -0.109375,-0.109375 -0.109375,0 -0.109375,0.046875 -0.140625,0.1875 -0.140625,0.5625 -0.328125,1.234375 -0.75,1.234375 -0.203125,0 -0.3125,-0.125 -0.3125,-0.453125 0,-0.21875 0.125,-0.6875 0.203125,-1.046875 L 4.578125,-2.6875 C 4.609375,-2.828125 4.703125,-3.203125 4.75,-3.359375 4.796875,-3.59375 4.890625,-3.96875 4.890625,-4.03125 c 0,-0.171875 -0.140625,-0.265625 -0.28125,-0.265625 -0.046875,0 -0.3125,0.015625 -0.390625,0.34375 -0.1875,0.734375 -0.625,2.484375 -0.75,3 -0.015625,0.046875 -0.40625,0.84375 -1.140625,0.84375 -0.515625,0 -0.609375,-0.453125 -0.609375,-0.8125 0,-0.5625 0.28125,-1.34375 0.53125,-2.03125 0.125,-0.3125 0.171875,-0.453125 0.171875,-0.640625 0,-0.4375 -0.3125,-0.8125 -0.8125,-0.8125 -0.953125,0 -1.3125,1.453125 -1.3125,1.53125 0,0.109375 0.09375,0.109375 0.109375,0.109375 0.109375,0 0.109375,-0.03125 0.15625,-0.1875 0.25,-0.859375 0.640625,-1.234375 1.015625,-1.234375 0.09375,0 0.25,0.015625 0.25,0.328125 0,0.234375 -0.109375,0.53125 -0.171875,0.671875 -0.375,1 -0.578125,1.609375 -0.578125,2.09375 0,0.953125 0.6875,1.203125 1.21875,1.203125 0.65625,0 1.015625,-0.453125 1.1875,-0.671875 z m 0,0"
               style="stroke:none" />
          </symbol>
          <symbol
             id="textext-b345ca0b-2"
             overflow="visible"
             style="overflow:visible">
            <path
               inkscape:connector-curvature="0"
               id="path4841"
               d=""
               style="stroke:none" />
          </symbol>
          <symbol
             id="textext-b345ca0b-3"
             overflow="visible"
             style="overflow:visible">
            <path
               inkscape:connector-curvature="0"
               id="path4844"
               d="m 2.328125,-4.4375 c 0,-0.1875 0,-0.1875 -0.203125,-0.1875 -0.453125,0.4375 -1.078125,0.4375 -1.359375,0.4375 l 0,0.25 c 0.15625,0 0.625,0 1,-0.1875 l 0,3.546875 c 0,0.234375 0,0.328125 -0.6875,0.328125 l -0.265625,0 0,0.25 c 0.125,0 0.984375,-0.03125 1.234375,-0.03125 0.21875,0 1.09375,0.03125 1.25,0.03125 l 0,-0.25 -0.265625,0 c -0.703125,0 -0.703125,-0.09375 -0.703125,-0.328125 l 0,-3.859375 z m 0,0"
               style="stroke:none" />
          </symbol>
        </g>
      </defs>
      <g
         id="textext-b345ca0b-4">
        <g
           id="g4847"
           style="fill:#000000;fill-opacity:1">
          <use
             id="use4849"
             y="134.765"
             x="223.43201"
             xlink:href="#textext-b345ca0b-1"
             width="629.03485"
             height="135.91847" />
        </g>
        <g
           id="g4851"
           style="fill:#000000;fill-opacity:1">
          <use
             id="use4853"
             y="136.259"
             x="229.13499"
             xlink:href="#textext-b345ca0b-3"
             width="629.03485"
             height="135.91847" />
        </g>
      </g>
    </g>
    <g
       ns0:text="$c_1$"
       ns0:preamble=""
       transform="matrix(1.8702703,0,0,1.8461537,-69.97432,31.631413)"
       id="g4742">
      <defs
         id="defs4744">
        <g
           id="g4746">
          <symbol
             overflow="visible"
             id="textext-1776a274-0">
            <path
               style="stroke:none;"
               d="M 3.953125 -3.78125 C 3.78125 -3.78125 3.65625 -3.78125 3.515625 -3.65625 C 3.34375 -3.5 3.328125 -3.328125 3.328125 -3.265625 C 3.328125 -3.015625 3.515625 -2.90625 3.703125 -2.90625 C 3.984375 -2.90625 4.25 -3.15625 4.25 -3.546875 C 4.25 -4.03125 3.78125 -4.40625 3.078125 -4.40625 C 1.734375 -4.40625 0.40625 -2.984375 0.40625 -1.578125 C 0.40625 -0.671875 0.984375 0.109375 2.03125 0.109375 C 3.453125 0.109375 4.28125 -0.953125 4.28125 -1.0625 C 4.28125 -1.125 4.234375 -1.203125 4.171875 -1.203125 C 4.109375 -1.203125 4.09375 -1.171875 4.03125 -1.09375 C 3.25 -0.109375 2.15625 -0.109375 2.046875 -0.109375 C 1.421875 -0.109375 1.140625 -0.59375 1.140625 -1.203125 C 1.140625 -1.609375 1.34375 -2.578125 1.6875 -3.1875 C 2 -3.765625 2.546875 -4.1875 3.09375 -4.1875 C 3.421875 -4.1875 3.8125 -4.0625 3.953125 -3.78125 Z M 3.953125 -3.78125 "
               id="path4749" />
          </symbol>
          <symbol
             overflow="visible"
             id="textext-1776a274-1">
            <path
               style="stroke:none;"
               d="M 2.328125 -4.4375 C 2.328125 -4.625 2.328125 -4.625 2.125 -4.625 C 1.671875 -4.1875 1.046875 -4.1875 0.765625 -4.1875 L 0.765625 -3.9375 C 0.921875 -3.9375 1.390625 -3.9375 1.765625 -4.125 L 1.765625 -0.578125 C 1.765625 -0.34375 1.765625 -0.25 1.078125 -0.25 L 0.8125 -0.25 L 0.8125 0 C 0.9375 0 1.796875 -0.03125 2.046875 -0.03125 C 2.265625 -0.03125 3.140625 0 3.296875 0 L 3.296875 -0.25 L 3.03125 -0.25 C 2.328125 -0.25 2.328125 -0.34375 2.328125 -0.578125 Z M 2.328125 -4.4375 "
               id="path4752" />
          </symbol>
        </g>
      </defs>
      <g
         id="textext-1776a274-2">
        <g
           style="fill:rgb(0%,0%,0%);fill-opacity:1;"
           id="g4755">
          <use
             xlink:href="#textext-1776a274-0"
             x="223.432"
             y="134.765"
             id="use4757" />
        </g>
        <g
           style="fill:rgb(0%,0%,0%);fill-opacity:1;"
           id="g4759">
          <use
             xlink:href="#textext-1776a274-1"
             x="227.743"
             y="136.259"
             id="use4761" />
        </g>
      </g>
    </g>
    <g
       id="g5326"
       transform="matrix(1.8702703,0,0,1.8461537,-11.166047,31.631413)"
       ns0:preamble=""
       ns0:text="$c_2$">
      <defs
         id="defs5328">
        <g
           id="g5330">
          <symbol
             id="textext-00419d5f-0"
             overflow="visible">
            <path
               id="path5333"
               d="M 3.953125 -3.78125 C 3.78125 -3.78125 3.65625 -3.78125 3.515625 -3.65625 C 3.34375 -3.5 3.328125 -3.328125 3.328125 -3.265625 C 3.328125 -3.015625 3.515625 -2.90625 3.703125 -2.90625 C 3.984375 -2.90625 4.25 -3.15625 4.25 -3.546875 C 4.25 -4.03125 3.78125 -4.40625 3.078125 -4.40625 C 1.734375 -4.40625 0.40625 -2.984375 0.40625 -1.578125 C 0.40625 -0.671875 0.984375 0.109375 2.03125 0.109375 C 3.453125 0.109375 4.28125 -0.953125 4.28125 -1.0625 C 4.28125 -1.125 4.234375 -1.203125 4.171875 -1.203125 C 4.109375 -1.203125 4.09375 -1.171875 4.03125 -1.09375 C 3.25 -0.109375 2.15625 -0.109375 2.046875 -0.109375 C 1.421875 -0.109375 1.140625 -0.59375 1.140625 -1.203125 C 1.140625 -1.609375 1.34375 -2.578125 1.6875 -3.1875 C 2 -3.765625 2.546875 -4.1875 3.09375 -4.1875 C 3.421875 -4.1875 3.8125 -4.0625 3.953125 -3.78125 Z M 3.953125 -3.78125 "
               style="stroke:none;" />
          </symbol>
          <symbol
             id="textext-00419d5f-1"
             overflow="visible">
            <path
               id="path5336"
               d="M 3.515625 -1.265625 L 3.28125 -1.265625 C 3.265625 -1.109375 3.1875 -0.703125 3.09375 -0.640625 C 3.046875 -0.59375 2.515625 -0.59375 2.40625 -0.59375 L 1.125 -0.59375 C 1.859375 -1.234375 2.109375 -1.4375 2.515625 -1.765625 C 3.03125 -2.171875 3.515625 -2.609375 3.515625 -3.265625 C 3.515625 -4.109375 2.78125 -4.625 1.890625 -4.625 C 1.03125 -4.625 0.4375 -4.015625 0.4375 -3.375 C 0.4375 -3.03125 0.734375 -2.984375 0.8125 -2.984375 C 0.96875 -2.984375 1.171875 -3.109375 1.171875 -3.359375 C 1.171875 -3.484375 1.125 -3.734375 0.765625 -3.734375 C 0.984375 -4.21875 1.453125 -4.375 1.78125 -4.375 C 2.484375 -4.375 2.84375 -3.828125 2.84375 -3.265625 C 2.84375 -2.65625 2.40625 -2.1875 2.1875 -1.9375 L 0.515625 -0.265625 C 0.4375 -0.203125 0.4375 -0.1875 0.4375 0 L 3.3125 0 Z M 3.515625 -1.265625 "
               style="stroke:none;" />
          </symbol>
        </g>
      </defs>
      <g
         id="textext-00419d5f-2">
        <g
           id="g5339"
           style="fill:rgb(0%,0%,0%);fill-opacity:1;">
          <use
             id="use5341"
             y="134.765"
             x="223.432"
             xlink:href="#textext-00419d5f-0" />
        </g>
        <g
           id="g5343"
           style="fill:rgb(0%,0%,0%);fill-opacity:1;">
          <use
             id="use5345"
             y="136.259"
             x="227.743"
             xlink:href="#textext-00419d5f-1" />
        </g>
      </g>
    </g>
    <g
       ns0:text="$c_3$"
       ns0:preamble=""
       transform="matrix(1.8702703,0,0,1.8461537,55.833975,31.631417)"
       id="g5905">
      <defs
         id="defs5907">
        <g
           id="g5909">
          <symbol
             overflow="visible"
             id="textext-4138572f-0">
            <path
               style="stroke:none;"
               d="M 3.953125 -3.78125 C 3.78125 -3.78125 3.65625 -3.78125 3.515625 -3.65625 C 3.34375 -3.5 3.328125 -3.328125 3.328125 -3.265625 C 3.328125 -3.015625 3.515625 -2.90625 3.703125 -2.90625 C 3.984375 -2.90625 4.25 -3.15625 4.25 -3.546875 C 4.25 -4.03125 3.78125 -4.40625 3.078125 -4.40625 C 1.734375 -4.40625 0.40625 -2.984375 0.40625 -1.578125 C 0.40625 -0.671875 0.984375 0.109375 2.03125 0.109375 C 3.453125 0.109375 4.28125 -0.953125 4.28125 -1.0625 C 4.28125 -1.125 4.234375 -1.203125 4.171875 -1.203125 C 4.109375 -1.203125 4.09375 -1.171875 4.03125 -1.09375 C 3.25 -0.109375 2.15625 -0.109375 2.046875 -0.109375 C 1.421875 -0.109375 1.140625 -0.59375 1.140625 -1.203125 C 1.140625 -1.609375 1.34375 -2.578125 1.6875 -3.1875 C 2 -3.765625 2.546875 -4.1875 3.09375 -4.1875 C 3.421875 -4.1875 3.8125 -4.0625 3.953125 -3.78125 Z M 3.953125 -3.78125 "
               id="path5912" />
          </symbol>
          <symbol
             overflow="visible"
             id="textext-4138572f-1">
            <path
               style="stroke:none;"
               d="M 1.90625 -2.328125 C 2.453125 -2.328125 2.84375 -1.953125 2.84375 -1.203125 C 2.84375 -0.34375 2.328125 -0.078125 1.9375 -0.078125 C 1.65625 -0.078125 1.03125 -0.15625 0.75 -0.578125 C 1.078125 -0.578125 1.15625 -0.8125 1.15625 -0.96875 C 1.15625 -1.1875 0.984375 -1.34375 0.765625 -1.34375 C 0.578125 -1.34375 0.375 -1.21875 0.375 -0.9375 C 0.375 -0.28125 1.09375 0.140625 1.9375 0.140625 C 2.90625 0.140625 3.578125 -0.515625 3.578125 -1.203125 C 3.578125 -1.75 3.140625 -2.296875 2.375 -2.453125 C 3.09375 -2.71875 3.359375 -3.234375 3.359375 -3.671875 C 3.359375 -4.21875 2.734375 -4.625 1.953125 -4.625 C 1.1875 -4.625 0.59375 -4.25 0.59375 -3.6875 C 0.59375 -3.453125 0.75 -3.328125 0.953125 -3.328125 C 1.171875 -3.328125 1.3125 -3.484375 1.3125 -3.671875 C 1.3125 -3.875 1.171875 -4.03125 0.953125 -4.046875 C 1.203125 -4.34375 1.671875 -4.421875 1.9375 -4.421875 C 2.25 -4.421875 2.6875 -4.265625 2.6875 -3.671875 C 2.6875 -3.375 2.59375 -3.046875 2.40625 -2.84375 C 2.1875 -2.578125 1.984375 -2.5625 1.640625 -2.53125 C 1.46875 -2.515625 1.453125 -2.515625 1.421875 -2.515625 C 1.40625 -2.515625 1.34375 -2.5 1.34375 -2.421875 C 1.34375 -2.328125 1.40625 -2.328125 1.53125 -2.328125 Z M 1.90625 -2.328125 "
               id="path5915" />
          </symbol>
        </g>
      </defs>
      <g
         id="textext-4138572f-2">
        <g
           style="fill:rgb(0%,0%,0%);fill-opacity:1;"
           id="g5918">
          <use
             xlink:href="#textext-4138572f-0"
             x="223.432"
             y="134.765"
             id="use5920" />
        </g>
        <g
           style="fill:rgb(0%,0%,0%);fill-opacity:1;"
           id="g5922">
          <use
             xlink:href="#textext-4138572f-1"
             x="227.743"
             y="136.259"
             id="use5924" />
        </g>
      </g>
    </g>
    <g
       id="g6476"
       transform="matrix(1.8702703,0,0,1.8461537,116.83397,31.631413)"
       ns0:preamble=""
       ns0:text="$c_4$">
      <defs
         id="defs6478">
        <g
           id="g6480">
          <symbol
             id="textext-af5f7f18-0"
             overflow="visible">
            <path
               id="path6483"
               d="M 3.953125 -3.78125 C 3.78125 -3.78125 3.65625 -3.78125 3.515625 -3.65625 C 3.34375 -3.5 3.328125 -3.328125 3.328125 -3.265625 C 3.328125 -3.015625 3.515625 -2.90625 3.703125 -2.90625 C 3.984375 -2.90625 4.25 -3.15625 4.25 -3.546875 C 4.25 -4.03125 3.78125 -4.40625 3.078125 -4.40625 C 1.734375 -4.40625 0.40625 -2.984375 0.40625 -1.578125 C 0.40625 -0.671875 0.984375 0.109375 2.03125 0.109375 C 3.453125 0.109375 4.28125 -0.953125 4.28125 -1.0625 C 4.28125 -1.125 4.234375 -1.203125 4.171875 -1.203125 C 4.109375 -1.203125 4.09375 -1.171875 4.03125 -1.09375 C 3.25 -0.109375 2.15625 -0.109375 2.046875 -0.109375 C 1.421875 -0.109375 1.140625 -0.59375 1.140625 -1.203125 C 1.140625 -1.609375 1.34375 -2.578125 1.6875 -3.1875 C 2 -3.765625 2.546875 -4.1875 3.09375 -4.1875 C 3.421875 -4.1875 3.8125 -4.0625 3.953125 -3.78125 Z M 3.953125 -3.78125 "
               style="stroke:none;" />
          </symbol>
          <symbol
             id="textext-af5f7f18-1"
             overflow="visible">
            <path
               id="path6486"
               d="M 3.6875 -1.140625 L 3.6875 -1.390625 L 2.90625 -1.390625 L 2.90625 -4.5 C 2.90625 -4.640625 2.90625 -4.703125 2.765625 -4.703125 C 2.671875 -4.703125 2.640625 -4.703125 2.578125 -4.59375 L 0.265625 -1.390625 L 0.265625 -1.140625 L 2.328125 -1.140625 L 2.328125 -0.578125 C 2.328125 -0.328125 2.328125 -0.25 1.75 -0.25 L 1.5625 -0.25 L 1.5625 0 C 1.921875 -0.015625 2.359375 -0.03125 2.609375 -0.03125 C 2.875 -0.03125 3.3125 -0.015625 3.671875 0 L 3.671875 -0.25 L 3.484375 -0.25 C 2.90625 -0.25 2.90625 -0.328125 2.90625 -0.578125 L 2.90625 -1.140625 Z M 2.375 -3.9375 L 2.375 -1.390625 L 0.53125 -1.390625 Z M 2.375 -3.9375 "
               style="stroke:none;" />
          </symbol>
        </g>
      </defs>
      <g
         id="textext-af5f7f18-2">
        <g
           id="g6489"
           style="fill:rgb(0%,0%,0%);fill-opacity:1;">
          <use
             id="use6491"
             y="134.765"
             x="223.432"
             xlink:href="#textext-af5f7f18-0" />
        </g>
        <g
           id="g6493"
           style="fill:rgb(0%,0%,0%);fill-opacity:1;">
          <use
             id="use6495"
             y="136.259"
             x="227.743"
             xlink:href="#textext-af5f7f18-1" />
        </g>
      </g>
    </g>
    <g
       ns0:text="$c_5$"
       ns0:preamble=""
       transform="matrix(1.8702703,0,0,1.8461537,177.83397,30.631415)"
       id="g7043">
      <defs
         id="defs7045">
        <g
           id="g7047">
          <symbol
             overflow="visible"
             id="textext-e2209555-0">
            <path
               style="stroke:none;"
               d="M 3.953125 -3.78125 C 3.78125 -3.78125 3.65625 -3.78125 3.515625 -3.65625 C 3.34375 -3.5 3.328125 -3.328125 3.328125 -3.265625 C 3.328125 -3.015625 3.515625 -2.90625 3.703125 -2.90625 C 3.984375 -2.90625 4.25 -3.15625 4.25 -3.546875 C 4.25 -4.03125 3.78125 -4.40625 3.078125 -4.40625 C 1.734375 -4.40625 0.40625 -2.984375 0.40625 -1.578125 C 0.40625 -0.671875 0.984375 0.109375 2.03125 0.109375 C 3.453125 0.109375 4.28125 -0.953125 4.28125 -1.0625 C 4.28125 -1.125 4.234375 -1.203125 4.171875 -1.203125 C 4.109375 -1.203125 4.09375 -1.171875 4.03125 -1.09375 C 3.25 -0.109375 2.15625 -0.109375 2.046875 -0.109375 C 1.421875 -0.109375 1.140625 -0.59375 1.140625 -1.203125 C 1.140625 -1.609375 1.34375 -2.578125 1.6875 -3.1875 C 2 -3.765625 2.546875 -4.1875 3.09375 -4.1875 C 3.421875 -4.1875 3.8125 -4.0625 3.953125 -3.78125 Z M 3.953125 -3.78125 "
               id="path7050" />
          </symbol>
          <symbol
             overflow="visible"
             id="textext-e2209555-1">
            <path
               style="stroke:none;"
               d="M 1.078125 -3.890625 C 1.4375 -3.796875 1.640625 -3.796875 1.75 -3.796875 C 2.671875 -3.796875 3.21875 -4.421875 3.21875 -4.53125 C 3.21875 -4.609375 3.171875 -4.625 3.140625 -4.625 C 3.125 -4.625 3.109375 -4.625 3.078125 -4.609375 C 2.90625 -4.546875 2.546875 -4.40625 2.03125 -4.40625 C 1.828125 -4.40625 1.46875 -4.421875 1.015625 -4.59375 C 0.9375 -4.625 0.921875 -4.625 0.921875 -4.625 C 0.828125 -4.625 0.828125 -4.546875 0.828125 -4.4375 L 0.828125 -2.390625 C 0.828125 -2.265625 0.828125 -2.1875 0.9375 -2.1875 C 1 -2.1875 1.015625 -2.1875 1.078125 -2.28125 C 1.375 -2.65625 1.8125 -2.71875 2.046875 -2.71875 C 2.46875 -2.71875 2.65625 -2.390625 2.6875 -2.328125 C 2.8125 -2.09375 2.859375 -1.828125 2.859375 -1.421875 C 2.859375 -1.21875 2.859375 -0.8125 2.640625 -0.5 C 2.46875 -0.25 2.171875 -0.078125 1.828125 -0.078125 C 1.375 -0.078125 0.90625 -0.328125 0.734375 -0.796875 C 1 -0.78125 1.140625 -0.953125 1.140625 -1.140625 C 1.140625 -1.4375 0.875 -1.484375 0.78125 -1.484375 C 0.78125 -1.484375 0.4375 -1.484375 0.4375 -1.109375 C 0.4375 -0.484375 1.015625 0.140625 1.84375 0.140625 C 2.734375 0.140625 3.515625 -0.515625 3.515625 -1.40625 C 3.515625 -2.1875 2.921875 -2.90625 2.0625 -2.90625 C 1.75 -2.90625 1.390625 -2.84375 1.078125 -2.578125 Z M 1.078125 -3.890625 "
               id="path7053" />
          </symbol>
        </g>
      </defs>
      <g
         id="textext-e2209555-2">
        <g
           style="fill:rgb(0%,0%,0%);fill-opacity:1;"
           id="g7056">
          <use
             xlink:href="#textext-e2209555-0"
             x="223.432"
             y="134.765"
             id="use7058" />
        </g>
        <g
           style="fill:rgb(0%,0%,0%);fill-opacity:1;"
           id="g7060">
          <use
             xlink:href="#textext-e2209555-1"
             x="227.743"
             y="136.259"
             id="use7062" />
        </g>
      </g>
    </g>
    <g
       id="g7594"
       transform="matrix(1.8702703,0,0,1.8461537,112.28866,-37.389484)"
       ns0:preamble=""
       ns0:text="$x_{t-1}$">
      <defs
         id="defs7596">
        <g
           id="g7598">
          <symbol
             id="textext-5de47ea6-0"
             overflow="visible">
            <path
               id="path7601"
               d="M 3.328125 -3.015625 C 3.390625 -3.265625 3.625 -4.1875 4.3125 -4.1875 C 4.359375 -4.1875 4.609375 -4.1875 4.8125 -4.0625 C 4.53125 -4 4.34375 -3.765625 4.34375 -3.515625 C 4.34375 -3.359375 4.453125 -3.171875 4.71875 -3.171875 C 4.9375 -3.171875 5.25 -3.34375 5.25 -3.75 C 5.25 -4.265625 4.671875 -4.40625 4.328125 -4.40625 C 3.75 -4.40625 3.40625 -3.875 3.28125 -3.65625 C 3.03125 -4.3125 2.5 -4.40625 2.203125 -4.40625 C 1.171875 -4.40625 0.59375 -3.125 0.59375 -2.875 C 0.59375 -2.765625 0.703125 -2.765625 0.71875 -2.765625 C 0.796875 -2.765625 0.828125 -2.796875 0.84375 -2.875 C 1.1875 -3.9375 1.84375 -4.1875 2.1875 -4.1875 C 2.375 -4.1875 2.71875 -4.09375 2.71875 -3.515625 C 2.71875 -3.203125 2.546875 -2.546875 2.1875 -1.140625 C 2.03125 -0.53125 1.671875 -0.109375 1.234375 -0.109375 C 1.171875 -0.109375 0.953125 -0.109375 0.734375 -0.234375 C 0.984375 -0.296875 1.203125 -0.5 1.203125 -0.78125 C 1.203125 -1.046875 0.984375 -1.125 0.84375 -1.125 C 0.53125 -1.125 0.296875 -0.875 0.296875 -0.546875 C 0.296875 -0.09375 0.78125 0.109375 1.21875 0.109375 C 1.890625 0.109375 2.25 -0.59375 2.265625 -0.640625 C 2.390625 -0.28125 2.75 0.109375 3.34375 0.109375 C 4.375 0.109375 4.9375 -1.171875 4.9375 -1.421875 C 4.9375 -1.53125 4.859375 -1.53125 4.828125 -1.53125 C 4.734375 -1.53125 4.71875 -1.484375 4.6875 -1.421875 C 4.359375 -0.34375 3.6875 -0.109375 3.375 -0.109375 C 2.984375 -0.109375 2.828125 -0.421875 2.828125 -0.765625 C 2.828125 -0.984375 2.875 -1.203125 2.984375 -1.640625 Z M 3.328125 -3.015625 "
               style="stroke:none;" />
          </symbol>
          <symbol
             id="textext-5de47ea6-1"
             overflow="visible">
            <path
               id="path7604"
               d="M 1.71875 -2.75 L 2.421875 -2.75 C 2.5625 -2.75 2.640625 -2.75 2.640625 -2.90625 C 2.640625 -3 2.5625 -3 2.4375 -3 L 1.78125 -3 L 2.03125 -4.03125 C 2.046875 -4.0625 2.0625 -4.109375 2.0625 -4.125 C 2.0625 -4.265625 1.953125 -4.359375 1.8125 -4.359375 C 1.640625 -4.359375 1.546875 -4.234375 1.484375 -4.0625 C 1.4375 -3.875 1.53125 -4.21875 1.21875 -3 L 0.515625 -3 C 0.390625 -3 0.296875 -3 0.296875 -2.84375 C 0.296875 -2.75 0.375 -2.75 0.5 -2.75 L 1.15625 -2.75 L 0.75 -1.109375 C 0.703125 -0.9375 0.640625 -0.6875 0.640625 -0.59375 C 0.640625 -0.1875 1 0.0625 1.390625 0.0625 C 2.171875 0.0625 2.609375 -0.90625 2.609375 -1 C 2.609375 -1.09375 2.515625 -1.09375 2.5 -1.09375 C 2.40625 -1.09375 2.40625 -1.078125 2.34375 -0.953125 C 2.15625 -0.515625 1.796875 -0.125 1.421875 -0.125 C 1.265625 -0.125 1.171875 -0.21875 1.171875 -0.46875 C 1.171875 -0.53125 1.203125 -0.6875 1.21875 -0.75 Z M 1.71875 -2.75 "
               style="stroke:none;" />
          </symbol>
          <symbol
             id="textext-5de47ea6-2"
             overflow="visible">
            <path
               id="path7607"
               d="M 5.1875 -1.578125 C 5.296875 -1.578125 5.46875 -1.578125 5.46875 -1.734375 C 5.46875 -1.921875 5.296875 -1.921875 5.1875 -1.921875 L 1.03125 -1.921875 C 0.921875 -1.921875 0.75 -1.921875 0.75 -1.75 C 0.75 -1.578125 0.90625 -1.578125 1.03125 -1.578125 Z M 5.1875 -1.578125 "
               style="stroke:none;" />
          </symbol>
          <symbol
             id="textext-5de47ea6-3"
             overflow="visible">
            <path
               id="path7610"
               d="M 2.328125 -4.4375 C 2.328125 -4.625 2.328125 -4.625 2.125 -4.625 C 1.671875 -4.1875 1.046875 -4.1875 0.765625 -4.1875 L 0.765625 -3.9375 C 0.921875 -3.9375 1.390625 -3.9375 1.765625 -4.125 L 1.765625 -0.578125 C 1.765625 -0.34375 1.765625 -0.25 1.078125 -0.25 L 0.8125 -0.25 L 0.8125 0 C 0.9375 0 1.796875 -0.03125 2.046875 -0.03125 C 2.265625 -0.03125 3.140625 0 3.296875 0 L 3.296875 -0.25 L 3.03125 -0.25 C 2.328125 -0.25 2.328125 -0.34375 2.328125 -0.578125 Z M 2.328125 -4.4375 "
               style="stroke:none;" />
          </symbol>
        </g>
      </defs>
      <g
         id="textext-5de47ea6-4">
        <g
           id="g7613"
           style="fill:rgb(0%,0%,0%);fill-opacity:1;">
          <use
             id="use7615"
             y="134.765"
             x="223.432"
             xlink:href="#textext-5de47ea6-0" />
        </g>
        <g
           id="g7617"
           style="fill:rgb(0%,0%,0%);fill-opacity:1;">
          <use
             id="use7619"
             y="136.259"
             x="229.126"
             xlink:href="#textext-5de47ea6-1" />
        </g>
        <g
           id="g7621"
           style="fill:rgb(0%,0%,0%);fill-opacity:1;">
          <use
             id="use7623"
             y="136.259"
             x="232.136"
             xlink:href="#textext-5de47ea6-2" />
        </g>
        <g
           id="g7625"
           style="fill:rgb(0%,0%,0%);fill-opacity:1;">
          <use
             id="use7627"
             y="136.259"
             x="238.362"
             xlink:href="#textext-5de47ea6-3" />
        </g>
      </g>
    </g>
    <g
       ns0:text="$u_t$"
       ns0:preamble=""
       transform="matrix(1.8702703,0,0,1.8461537,179.0237,-29.972749)"
       id="g8155">
      <defs
         id="defs8157">
        <g
           id="g8159">
          <symbol
             overflow="visible"
             id="textext-06a4bccc-0">
            <path
               style="stroke:none;"
               d="M 3.484375 -0.5625 C 3.59375 -0.15625 3.953125 0.109375 4.375 0.109375 C 4.71875 0.109375 4.953125 -0.125 5.109375 -0.4375 C 5.28125 -0.796875 5.40625 -1.40625 5.40625 -1.421875 C 5.40625 -1.53125 5.328125 -1.53125 5.296875 -1.53125 C 5.1875 -1.53125 5.1875 -1.484375 5.15625 -1.34375 C 5.015625 -0.78125 4.828125 -0.109375 4.40625 -0.109375 C 4.203125 -0.109375 4.09375 -0.234375 4.09375 -0.5625 C 4.09375 -0.78125 4.21875 -1.25 4.296875 -1.609375 L 4.578125 -2.6875 C 4.609375 -2.828125 4.703125 -3.203125 4.75 -3.359375 C 4.796875 -3.59375 4.890625 -3.96875 4.890625 -4.03125 C 4.890625 -4.203125 4.75 -4.296875 4.609375 -4.296875 C 4.5625 -4.296875 4.296875 -4.28125 4.21875 -3.953125 C 4.03125 -3.21875 3.59375 -1.46875 3.46875 -0.953125 C 3.453125 -0.90625 3.0625 -0.109375 2.328125 -0.109375 C 1.8125 -0.109375 1.71875 -0.5625 1.71875 -0.921875 C 1.71875 -1.484375 2 -2.265625 2.25 -2.953125 C 2.375 -3.265625 2.421875 -3.40625 2.421875 -3.59375 C 2.421875 -4.03125 2.109375 -4.40625 1.609375 -4.40625 C 0.65625 -4.40625 0.296875 -2.953125 0.296875 -2.875 C 0.296875 -2.765625 0.390625 -2.765625 0.40625 -2.765625 C 0.515625 -2.765625 0.515625 -2.796875 0.5625 -2.953125 C 0.8125 -3.8125 1.203125 -4.1875 1.578125 -4.1875 C 1.671875 -4.1875 1.828125 -4.171875 1.828125 -3.859375 C 1.828125 -3.625 1.71875 -3.328125 1.65625 -3.1875 C 1.28125 -2.1875 1.078125 -1.578125 1.078125 -1.09375 C 1.078125 -0.140625 1.765625 0.109375 2.296875 0.109375 C 2.953125 0.109375 3.3125 -0.34375 3.484375 -0.5625 Z M 3.484375 -0.5625 "
               id="path8162" />
          </symbol>
          <symbol
             overflow="visible"
             id="textext-06a4bccc-1">
            <path
               style="stroke:none;"
               d="M 1.71875 -2.75 L 2.421875 -2.75 C 2.5625 -2.75 2.640625 -2.75 2.640625 -2.90625 C 2.640625 -3 2.5625 -3 2.4375 -3 L 1.78125 -3 L 2.03125 -4.03125 C 2.046875 -4.0625 2.0625 -4.109375 2.0625 -4.125 C 2.0625 -4.265625 1.953125 -4.359375 1.8125 -4.359375 C 1.640625 -4.359375 1.546875 -4.234375 1.484375 -4.0625 C 1.4375 -3.875 1.53125 -4.21875 1.21875 -3 L 0.515625 -3 C 0.390625 -3 0.296875 -3 0.296875 -2.84375 C 0.296875 -2.75 0.375 -2.75 0.5 -2.75 L 1.15625 -2.75 L 0.75 -1.109375 C 0.703125 -0.9375 0.640625 -0.6875 0.640625 -0.59375 C 0.640625 -0.1875 1 0.0625 1.390625 0.0625 C 2.171875 0.0625 2.609375 -0.90625 2.609375 -1 C 2.609375 -1.09375 2.515625 -1.09375 2.5 -1.09375 C 2.40625 -1.09375 2.40625 -1.078125 2.34375 -0.953125 C 2.15625 -0.515625 1.796875 -0.125 1.421875 -0.125 C 1.265625 -0.125 1.171875 -0.21875 1.171875 -0.46875 C 1.171875 -0.53125 1.203125 -0.6875 1.21875 -0.75 Z M 1.71875 -2.75 "
               id="path8165" />
          </symbol>
        </g>
      </defs>
      <g
         id="textext-06a4bccc-2">
        <g
           style="fill:rgb(0%,0%,0%);fill-opacity:1;"
           id="g8168">
          <use
             xlink:href="#textext-06a4bccc-0"
             x="223.432"
             y="134.765"
             id="use8170" />
        </g>
        <g
           style="fill:rgb(0%,0%,0%);fill-opacity:1;"
           id="g8172">
          <use
             xlink:href="#textext-06a4bccc-1"
             x="229.135"
             y="136.259"
             id="use8174" />
        </g>
      </g>
    </g>
    <g
       id="g8694"
       transform="matrix(1.8702703,0,0,1.8461537,234.28866,-37.389483)"
       ns0:preamble=""
       ns0:text="$x_t$">
      <defs
         id="defs8696">
        <g
           id="g8698">
          <symbol
             id="textext-ed6154e6-0"
             overflow="visible">
            <path
               id="path8701"
               d="M 3.328125 -3.015625 C 3.390625 -3.265625 3.625 -4.1875 4.3125 -4.1875 C 4.359375 -4.1875 4.609375 -4.1875 4.8125 -4.0625 C 4.53125 -4 4.34375 -3.765625 4.34375 -3.515625 C 4.34375 -3.359375 4.453125 -3.171875 4.71875 -3.171875 C 4.9375 -3.171875 5.25 -3.34375 5.25 -3.75 C 5.25 -4.265625 4.671875 -4.40625 4.328125 -4.40625 C 3.75 -4.40625 3.40625 -3.875 3.28125 -3.65625 C 3.03125 -4.3125 2.5 -4.40625 2.203125 -4.40625 C 1.171875 -4.40625 0.59375 -3.125 0.59375 -2.875 C 0.59375 -2.765625 0.703125 -2.765625 0.71875 -2.765625 C 0.796875 -2.765625 0.828125 -2.796875 0.84375 -2.875 C 1.1875 -3.9375 1.84375 -4.1875 2.1875 -4.1875 C 2.375 -4.1875 2.71875 -4.09375 2.71875 -3.515625 C 2.71875 -3.203125 2.546875 -2.546875 2.1875 -1.140625 C 2.03125 -0.53125 1.671875 -0.109375 1.234375 -0.109375 C 1.171875 -0.109375 0.953125 -0.109375 0.734375 -0.234375 C 0.984375 -0.296875 1.203125 -0.5 1.203125 -0.78125 C 1.203125 -1.046875 0.984375 -1.125 0.84375 -1.125 C 0.53125 -1.125 0.296875 -0.875 0.296875 -0.546875 C 0.296875 -0.09375 0.78125 0.109375 1.21875 0.109375 C 1.890625 0.109375 2.25 -0.59375 2.265625 -0.640625 C 2.390625 -0.28125 2.75 0.109375 3.34375 0.109375 C 4.375 0.109375 4.9375 -1.171875 4.9375 -1.421875 C 4.9375 -1.53125 4.859375 -1.53125 4.828125 -1.53125 C 4.734375 -1.53125 4.71875 -1.484375 4.6875 -1.421875 C 4.359375 -0.34375 3.6875 -0.109375 3.375 -0.109375 C 2.984375 -0.109375 2.828125 -0.421875 2.828125 -0.765625 C 2.828125 -0.984375 2.875 -1.203125 2.984375 -1.640625 Z M 3.328125 -3.015625 "
               style="stroke:none;" />
          </symbol>
          <symbol
             id="textext-ed6154e6-1"
             overflow="visible">
            <path
               id="path8704"
               d="M 1.71875 -2.75 L 2.421875 -2.75 C 2.5625 -2.75 2.640625 -2.75 2.640625 -2.90625 C 2.640625 -3 2.5625 -3 2.4375 -3 L 1.78125 -3 L 2.03125 -4.03125 C 2.046875 -4.0625 2.0625 -4.109375 2.0625 -4.125 C 2.0625 -4.265625 1.953125 -4.359375 1.8125 -4.359375 C 1.640625 -4.359375 1.546875 -4.234375 1.484375 -4.0625 C 1.4375 -3.875 1.53125 -4.21875 1.21875 -3 L 0.515625 -3 C 0.390625 -3 0.296875 -3 0.296875 -2.84375 C 0.296875 -2.75 0.375 -2.75 0.5 -2.75 L 1.15625 -2.75 L 0.75 -1.109375 C 0.703125 -0.9375 0.640625 -0.6875 0.640625 -0.59375 C 0.640625 -0.1875 1 0.0625 1.390625 0.0625 C 2.171875 0.0625 2.609375 -0.90625 2.609375 -1 C 2.609375 -1.09375 2.515625 -1.09375 2.5 -1.09375 C 2.40625 -1.09375 2.40625 -1.078125 2.34375 -0.953125 C 2.15625 -0.515625 1.796875 -0.125 1.421875 -0.125 C 1.265625 -0.125 1.171875 -0.21875 1.171875 -0.46875 C 1.171875 -0.53125 1.203125 -0.6875 1.21875 -0.75 Z M 1.71875 -2.75 "
               style="stroke:none;" />
          </symbol>
        </g>
      </defs>
      <g
         id="textext-ed6154e6-2">
        <g
           id="g8707"
           style="fill:rgb(0%,0%,0%);fill-opacity:1;">
          <use
             id="use8709"
             y="134.765"
             x="223.432"
             xlink:href="#textext-ed6154e6-0" />
        </g>
        <g
           id="g8711"
           style="fill:rgb(0%,0%,0%);fill-opacity:1;">
          <use
             id="use8713"
             y="136.259"
             x="229.126"
             xlink:href="#textext-ed6154e6-1" />
        </g>
      </g>
    </g>
  </g>
</svg>
