<?xml version="1.0" encoding="UTF-8" standalone="no"?>
<!-- Created with Inkscape (http://www.inkscape.org/) -->

<svg
   xmlns:ns0="http://www.iki.fi/pav/software/textext/"
   xmlns:dc="http://purl.org/dc/elements/1.1/"
   xmlns:cc="http://creativecommons.org/ns#"
   xmlns:rdf="http://www.w3.org/1999/02/22-rdf-syntax-ns#"
   xmlns:svg="http://www.w3.org/2000/svg"
   xmlns="http://www.w3.org/2000/svg"
   xmlns:xlink="http://www.w3.org/1999/xlink"
   xmlns:sodipodi="http://sodipodi.sourceforge.net/DTD/sodipodi-0.dtd"
   xmlns:inkscape="http://www.inkscape.org/namespaces/inkscape"
   version="1.1"
   inkscape:output_extension="org.inkscape.output.svg.inkscape"
   sodipodi:docname="sfm_graph.svg"
   inkscape:version="0.48.3.1 r9886"
   sodipodi:version="0.32"
   id="svg2"
   height="162.00117"
   width="455.02524">
  <sodipodi:namedview
     id="base"
     pagecolor="#ffffff"
     bordercolor="#666666"
     borderopacity="1.0"
     gridtolerance="10000"
     guidetolerance="10"
     objecttolerance="10"
     inkscape:pageopacity="0.0"
     inkscape:pageshadow="2"
     inkscape:zoom="2.4465895"
     inkscape:cx="205.18858"
     inkscape:cy="84.418733"
     inkscape:document-units="px"
     inkscape:current-layer="layer1"
     showgrid="true"
     showguides="true"
     inkscape:window-width="1600"
     inkscape:window-height="970"
     inkscape:window-x="318"
     inkscape:window-y="81"
     inkscape:guide-bbox="true"
     inkscape:snap-grids="true"
     inkscape:snap-page="false"
     inkscape:snap-to-guides="true"
     inkscape:window-maximized="0"
     inkscape:snap-smooth-nodes="false"
     inkscape:object-paths="false">
    <inkscape:grid
       type="xygrid"
       id="grid3177"
       empspacing="5"
       visible="true"
       enabled="true"
       snapvisiblegridlinesonly="true" />
  </sodipodi:namedview>
  <defs
     id="defs4">
    <inkscape:perspective
       sodipodi:type="inkscape:persp3d"
       inkscape:vp_x="0 : 526.18109 : 1"
       inkscape:vp_y="0 : 1000 : 0"
       inkscape:vp_z="744.09448 : 526.18109 : 1"
       inkscape:persp3d-origin="372.04724 : 350.78739 : 1"
       id="perspective10" />
    <defs
       id="defs16688">
      <g
         id="g16690">
        <symbol
           id="textext-a6bc9e9d-0"
           overflow="visible"
           style="overflow:visible">
          <path
             id="path16693"
             d=""
             style="stroke:none" />
        </symbol>
        <symbol
           id="textext-a6bc9e9d-1"
           overflow="visible"
           style="overflow:visible">
          <path
             id="path16696"
             d="M 3.59375,-2.21875 C 3.59375,-2.984375 3.5,-3.546875 3.1875,-4.03125 2.96875,-4.34375 2.53125,-4.625 1.984375,-4.625 c -1.625,0 -1.625,1.90625 -1.625,2.40625 0,0.5 0,2.359375 1.625,2.359375 1.609375,0 1.609375,-1.859375 1.609375,-2.359375 z M 1.984375,-0.0625 c -0.328125,0 -0.75,-0.1875 -0.890625,-0.75 C 1,-1.21875 1,-1.796875 1,-2.3125 1,-2.828125 1,-3.359375 1.09375,-3.734375 1.25,-4.28125 1.6875,-4.4375 1.984375,-4.4375 c 0.375,0 0.734375,0.234375 0.859375,0.640625 0.109375,0.375 0.125,0.875 0.125,1.484375 0,0.515625 0,1.03125 -0.09375,1.46875 -0.140625,0.640625 -0.609375,0.78125 -0.890625,0.78125 z"
             style="stroke:none" />
        </symbol>
        <symbol
           id="textext-a6bc9e9d-2"
           overflow="visible"
           style="overflow:visible">
          <path
             id="path16699"
             d=""
             style="stroke:none" />
        </symbol>
        <symbol
           id="textext-a6bc9e9d-3"
           overflow="visible"
           style="overflow:visible">
          <path
             id="path16702"
             d="m 4.40625,-6.953125 c -0.0625,-0.140625 -0.09375,-0.1875 -0.265625,-0.1875 -0.15625,0 -0.1875,0.046875 -0.25,0.1875 l -3.375,6.75 C 0.46875,-0.109375 0.46875,-0.09375 0.46875,-0.078125 0.46875,0 0.53125,0 0.6875,0 l 6.921875,0 c 0.15625,0 0.21875,0 0.21875,-0.078125 0,-0.015625 0,-0.03125 -0.046875,-0.125 l -3.375,-6.75 z m -0.578125,0.8125 2.6875,5.390625 -5.375,0 2.6875,-5.390625 z"
             style="stroke:none" />
        </symbol>
        <symbol
           id="textext-a6bc9e9d-4"
           overflow="visible"
           style="overflow:visible">
          <path
             id="path16705"
             d="m 4.578125,-3.1875 c 0,-0.796875 -0.046875,-1.59375 -0.390625,-2.328125 -0.453125,-0.96875 -1.28125,-1.125 -1.6875,-1.125 -0.609375,0 -1.328125,0.265625 -1.75,1.1875 -0.3125,0.6875 -0.359375,1.46875 -0.359375,2.265625 0,0.75 0.03125,1.640625 0.453125,2.40625 0.421875,0.796875 1.15625,1 1.640625,1 0.53125,0 1.296875,-0.203125 1.734375,-1.15625 0.3125,-0.6875 0.359375,-1.46875 0.359375,-2.25 z M 2.484375,0 C 2.09375,0 1.5,-0.25 1.328125,-1.203125 1.21875,-1.796875 1.21875,-2.71875 1.21875,-3.3125 c 0,-0.640625 0,-1.296875 0.078125,-1.828125 0.1875,-1.1875 0.9375,-1.28125 1.1875,-1.28125 0.328125,0 0.984375,0.1875 1.171875,1.171875 0.109375,0.5625 0.109375,1.3125 0.109375,1.9375 0,0.75 0,1.421875 -0.109375,2.0625 C 3.5,-0.296875 2.9375,0 2.484375,0 z"
             style="stroke:none" />
        </symbol>
      </g>
    </defs>
    <defs
       id="defs22288">
      <g
         id="g22290">
        <symbol
           id="textext-e00aab29-0"
           overflow="visible"
           style="overflow:visible">
          <path
             id="path22293"
             d=""
             style="stroke:none" />
        </symbol>
        <symbol
           id="textext-e00aab29-1"
           overflow="visible"
           style="overflow:visible">
          <path
             id="path22296"
             d="m 2.9375,-6.375 c 0,-0.25 0,-0.265625 -0.234375,-0.265625 C 2.078125,-6 1.203125,-6 0.890625,-6 l 0,0.3125 c 0.203125,0 0.78125,0 1.296875,-0.265625 l 0,5.171875 c 0,0.359375 -0.03125,0.46875 -0.921875,0.46875 l -0.3125,0 0,0.3125 c 0.34375,-0.03125 1.203125,-0.03125 1.609375,-0.03125 0.390625,0 1.265625,0 1.609375,0.03125 l 0,-0.3125 -0.3125,0 c -0.90625,0 -0.921875,-0.109375 -0.921875,-0.46875 l 0,-5.59375 z"
             style="stroke:none" />
        </symbol>
        <symbol
           id="textext-e00aab29-2"
           overflow="visible"
           style="overflow:visible">
          <path
             id="path22299"
             d="m 4.46875,-1.734375 -0.234375,0 C 4.171875,-1.4375 4.109375,-1 4,-0.84375 3.9375,-0.765625 3.28125,-0.765625 3.0625,-0.765625 l -1.796875,0 1.0625,-1.03125 c 1.546875,-1.375 2.140625,-1.90625 2.140625,-2.90625 0,-1.140625 -0.890625,-1.9375 -2.109375,-1.9375 -1.125,0 -1.859375,0.921875 -1.859375,1.8125 0,0.546875 0.5,0.546875 0.53125,0.546875 0.171875,0 0.515625,-0.109375 0.515625,-0.53125 0,-0.25 -0.1875,-0.515625 -0.53125,-0.515625 -0.078125,0 -0.09375,0 -0.125,0.015625 0.21875,-0.65625 0.765625,-1.015625 1.34375,-1.015625 0.90625,0 1.328125,0.8125 1.328125,1.625 C 3.5625,-3.90625 3.078125,-3.125 2.515625,-2.5 l -1.90625,2.125 C 0.5,-0.265625 0.5,-0.234375 0.5,0 L 4.203125,0 4.46875,-1.734375 z"
             style="stroke:none" />
        </symbol>
        <symbol
           id="textext-e00aab29-3"
           overflow="visible"
           style="overflow:visible">
          <path
             id="path22302"
             d="m 2.890625,-3.515625 c 0.8125,-0.265625 1.390625,-0.953125 1.390625,-1.75 0,-0.8125 -0.875,-1.375 -1.828125,-1.375 -1,0 -1.765625,0.59375 -1.765625,1.359375 0,0.328125 0.21875,0.515625 0.515625,0.515625 0.296875,0 0.5,-0.21875 0.5,-0.515625 0,-0.484375 -0.46875,-0.484375 -0.609375,-0.484375 0.296875,-0.5 0.953125,-0.625 1.3125,-0.625 0.421875,0 0.96875,0.21875 0.96875,1.109375 0,0.125 -0.03125,0.703125 -0.28125,1.140625 C 2.796875,-3.65625 2.453125,-3.625 2.203125,-3.625 2.125,-3.609375 1.890625,-3.59375 1.8125,-3.59375 c -0.078125,0.015625 -0.140625,0.03125 -0.140625,0.125 0,0.109375 0.0625,0.109375 0.234375,0.109375 l 0.4375,0 c 0.8125,0 1.1875,0.671875 1.1875,1.65625 0,1.359375 -0.6875,1.640625 -1.125,1.640625 -0.4375,0 -1.1875,-0.171875 -1.53125,-0.75 0.34375,0.046875 0.65625,-0.171875 0.65625,-0.546875 0,-0.359375 -0.265625,-0.5625 -0.546875,-0.5625 -0.25,0 -0.5625,0.140625 -0.5625,0.578125 0,0.90625 0.921875,1.5625 2.015625,1.5625 1.21875,0 2.125,-0.90625 2.125,-1.921875 0,-0.8125 -0.640625,-1.59375 -1.671875,-1.8125 z"
             style="stroke:none" />
        </symbol>
        <symbol
           id="textext-e00aab29-4"
           overflow="visible"
           style="overflow:visible">
          <path
             id="path22305"
             d=""
             style="stroke:none" />
        </symbol>
        <symbol
           id="textext-e00aab29-5"
           overflow="visible"
           style="overflow:visible">
          <path
             id="path22308"
             d="M 4.828125,-4.09375 4,-6.078125 c -0.03125,-0.078125 -0.046875,-0.125 -0.046875,-0.125 0,-0.0625 0.15625,-0.25 0.578125,-0.296875 0.109375,-0.015625 0.203125,-0.015625 0.203125,-0.1875 0,-0.125 -0.125,-0.125 -0.15625,-0.125 -0.40625,0 -0.828125,0.03125 -1.25,0.03125 -0.25,0 -0.859375,-0.03125 -1.109375,-0.03125 -0.0625,0 -0.1875,0 -0.1875,0.203125 C 2.03125,-6.5 2.140625,-6.5 2.265625,-6.5 c 0.59375,0 0.65625,0.09375 0.75,0.3125 L 4.1875,-3.40625 2.078125,-1.140625 c -0.046875,0.046875 -0.0625,0.0625 -0.125,0.109375 C 1.46875,-0.5 1,-0.34375 0.484375,-0.3125 c -0.125,0.015625 -0.21875,0.015625 -0.21875,0.203125 0,0.015625 0,0.109375 0.140625,0.109375 0.296875,0 0.625,-0.03125 0.921875,-0.03125 C 1.703125,-0.03125 2.09375,0 2.453125,0 2.515625,0 2.625,0 2.625,-0.203125 2.625,-0.296875 2.53125,-0.3125 2.515625,-0.3125 c -0.09375,0 -0.40625,-0.03125 -0.40625,-0.3125 0,-0.15625 0.15625,-0.3125 0.265625,-0.4375 L 3.40625,-2.140625 C 3.703125,-2.46875 4.09375,-2.875 4.296875,-3.125 l 1,2.390625 c 0.046875,0.109375 0.0625,0.109375 0.0625,0.140625 0,0.078125 -0.203125,0.25 -0.578125,0.28125 C 4.671875,-0.296875 4.578125,-0.296875 4.578125,-0.125 4.578125,0 4.6875,0 4.71875,0 5,0 5.703125,-0.03125 5.984375,-0.03125 6.234375,-0.03125 6.84375,0 7.09375,0 c 0.0625,0 0.1875,0 0.1875,-0.1875 0,-0.125 -0.109375,-0.125 -0.1875,-0.125 -0.65625,0 -0.6875,-0.03125 -0.859375,-0.4375 C 5.859375,-1.671875 5.1875,-3.234375 4.953125,-3.828125 5.625,-4.53125 6.671875,-5.71875 7,-5.984375 7.28125,-6.234375 7.671875,-6.46875 8.265625,-6.5 c 0.125,-0.015625 0.21875,-0.015625 0.21875,-0.203125 0,0 0,-0.109375 -0.125,-0.109375 -0.296875,0 -0.640625,0.03125 -0.9375,0.03125 -0.375,0 -0.75,-0.03125 -1.109375,-0.03125 -0.0625,0 -0.1875,0 -0.1875,0.203125 0,0.0625 0.046875,0.09375 0.109375,0.109375 0.09375,0.015625 0.40625,0.03125 0.40625,0.3125 0,0.140625 -0.109375,0.265625 -0.1875,0.359375 l -1.625,1.734375 z"
             style="stroke:none" />
        </symbol>
      </g>
    </defs>
    <inkscape:perspective
       id="perspective3129"
       inkscape:persp3d-origin="0.5 : 0.33333333 : 1"
       inkscape:vp_z="1 : 0.5 : 1"
       inkscape:vp_y="0 : 1000 : 0"
       inkscape:vp_x="0 : 0.5 : 1"
       sodipodi:type="inkscape:persp3d" />
    <inkscape:perspective
       id="perspective3183"
       inkscape:persp3d-origin="0.5 : 0.33333333 : 1"
       inkscape:vp_z="1 : 0.5 : 1"
       inkscape:vp_y="0 : 1000 : 0"
       inkscape:vp_x="0 : 0.5 : 1"
       sodipodi:type="inkscape:persp3d" />
    <inkscape:perspective
       id="perspective3277"
       inkscape:persp3d-origin="0.5 : 0.33333333 : 1"
       inkscape:vp_z="1 : 0.5 : 1"
       inkscape:vp_y="0 : 1000 : 0"
       inkscape:vp_x="0 : 0.5 : 1"
       sodipodi:type="inkscape:persp3d" />
    <inkscape:perspective
       id="perspective3359"
       inkscape:persp3d-origin="0.5 : 0.33333333 : 1"
       inkscape:vp_z="1 : 0.5 : 1"
       inkscape:vp_y="0 : 1000 : 0"
       inkscape:vp_x="0 : 0.5 : 1"
       sodipodi:type="inkscape:persp3d" />
    <inkscape:perspective
       id="perspective3381"
       inkscape:persp3d-origin="0.5 : 0.33333333 : 1"
       inkscape:vp_z="1 : 0.5 : 1"
       inkscape:vp_y="0 : 1000 : 0"
       inkscape:vp_x="0 : 0.5 : 1"
       sodipodi:type="inkscape:persp3d" />
    <inkscape:perspective
       id="perspective3403"
       inkscape:persp3d-origin="0.5 : 0.33333333 : 1"
       inkscape:vp_z="1 : 0.5 : 1"
       inkscape:vp_y="0 : 1000 : 0"
       inkscape:vp_x="0 : 0.5 : 1"
       sodipodi:type="inkscape:persp3d" />
    <inkscape:perspective
       id="perspective3403-4"
       inkscape:persp3d-origin="0.5 : 0.33333333 : 1"
       inkscape:vp_z="1 : 0.5 : 1"
       inkscape:vp_y="0 : 1000 : 0"
       inkscape:vp_x="0 : 0.5 : 1"
       sodipodi:type="inkscape:persp3d" />
    <inkscape:perspective
       id="perspective3434"
       inkscape:persp3d-origin="0.5 : 0.33333333 : 1"
       inkscape:vp_z="1 : 0.5 : 1"
       inkscape:vp_y="0 : 1000 : 0"
       inkscape:vp_x="0 : 0.5 : 1"
       sodipodi:type="inkscape:persp3d" />
    <inkscape:perspective
       id="perspective3456"
       inkscape:persp3d-origin="0.5 : 0.33333333 : 1"
       inkscape:vp_z="1 : 0.5 : 1"
       inkscape:vp_y="0 : 1000 : 0"
       inkscape:vp_x="0 : 0.5 : 1"
       sodipodi:type="inkscape:persp3d" />
    <inkscape:perspective
       id="perspective3538"
       inkscape:persp3d-origin="0.5 : 0.33333333 : 1"
       inkscape:vp_z="1 : 0.5 : 1"
       inkscape:vp_y="0 : 1000 : 0"
       inkscape:vp_x="0 : 0.5 : 1"
       sodipodi:type="inkscape:persp3d" />
    <inkscape:perspective
       id="perspective4348"
       inkscape:persp3d-origin="0.5 : 0.33333333 : 1"
       inkscape:vp_z="1 : 0.5 : 1"
       inkscape:vp_y="0 : 1000 : 0"
       inkscape:vp_x="0 : 0.5 : 1"
       sodipodi:type="inkscape:persp3d" />
    <inkscape:perspective
       id="perspective4430"
       inkscape:persp3d-origin="0.5 : 0.33333333 : 1"
       inkscape:vp_z="1 : 0.5 : 1"
       inkscape:vp_y="0 : 1000 : 0"
       inkscape:vp_x="0 : 0.5 : 1"
       sodipodi:type="inkscape:persp3d" />
    <inkscape:perspective
       id="perspective4512"
       inkscape:persp3d-origin="0.5 : 0.33333333 : 1"
       inkscape:vp_z="1 : 0.5 : 1"
       inkscape:vp_y="0 : 1000 : 0"
       inkscape:vp_x="0 : 0.5 : 1"
       sodipodi:type="inkscape:persp3d" />
    <inkscape:perspective
       sodipodi:type="inkscape:persp3d"
       inkscape:vp_x="0 : 0.5 : 1"
       inkscape:vp_y="0 : 1000 : 0"
       inkscape:vp_z="1 : 0.5 : 1"
       inkscape:persp3d-origin="0.5 : 0.33333333 : 1"
       id="perspective3113" />
    <inkscape:perspective
       sodipodi:type="inkscape:persp3d"
       inkscape:vp_x="0 : 0.5 : 1"
       inkscape:vp_y="0 : 1000 : 0"
       inkscape:vp_z="1 : 0.5 : 1"
       inkscape:persp3d-origin="0.5 : 0.33333333 : 1"
       id="perspective5214" />
  </defs>
  <metadata
     id="metadata7">
    <rdf:RDF>
      <cc:Work
         rdf:about="">
        <dc:format>image/svg+xml</dc:format>
        <dc:type
           rdf:resource="http://purl.org/dc/dcmitype/StillImage" />
        <dc:title />
      </cc:Work>
    </rdf:RDF>
  </metadata>
  <g
     inkscape:label="Layer 1"
     inkscape:groupmode="layer"
     id="layer1"
     transform="translate(-219.50963,-166.75663)">
    <path
       style="fill:#161414;fill-opacity:1;fill-rule:evenodd;stroke:#1d1b1b;stroke-width:0.99999994px;stroke-linecap:butt;stroke-linejoin:miter;stroke-miterlimit:4;stroke-opacity:1;stroke-dasharray:none;stroke-dashoffset:0;marker:none;visibility:visible;display:inline;overflow:visible;enable-background:accumulate"
       d="m 664.50962,228.75782 -154.99998,90"
       id="path3379-2-9"
       inkscape:connector-curvature="0" />
    <path
       style="fill:#161414;fill-opacity:1;fill-rule:evenodd;stroke:#1d1b1b;stroke-width:0.99999988px;stroke-linecap:butt;stroke-linejoin:miter;stroke-miterlimit:4;stroke-opacity:1;stroke-dasharray:none;stroke-dashoffset:0;marker:none;visibility:visible;display:inline;overflow:visible;enable-background:accumulate"
       d="m 420,227.36217 90.00002,90"
       id="path3379-2-4" />
    <path
       style="fill:#161414;fill-opacity:1;fill-rule:evenodd;stroke:#1d1b1b;stroke-width:0.99999988px;stroke-linecap:butt;stroke-linejoin:miter;stroke-miterlimit:4;stroke-opacity:1;stroke-dasharray:none;stroke-dashoffset:0;marker:none;visibility:visible;display:inline;overflow:visible;enable-background:accumulate"
       d="m 544.99998,227.36217 -34.99998,90"
       id="path3379-2" />
    <path
       style="fill:#161414;fill-opacity:1;fill-rule:evenodd;stroke:#1d1b1b;stroke-width:0.99999994px;stroke-linecap:butt;stroke-linejoin:miter;stroke-miterlimit:4;stroke-opacity:1;stroke-dasharray:none;stroke-dashoffset:0;marker:none;visibility:visible;display:inline;overflow:visible;enable-background:accumulate"
       d="M 287.52953,227.90551 385,317.36218"
       id="path3379-9" />
    <text
       xml:space="preserve"
       style="font-size:40px;font-style:italic;font-weight:normal;line-height:125%;fill:#000000;fill-opacity:1;stroke:none;font-family:Bitstream Vera Sans;-inkscape-font-specification:Sans Italic"
       x="178.29192"
       y="114.94062"
       id="text3179"
       sodipodi:linespacing="125%"><tspan
         sodipodi:role="line"
         id="tspan3181"
         x="178.29192"
         y="114.94062"
         style="font-size:32px;font-style:oblique;font-variant:normal;font-weight:normal;font-stretch:normal;text-align:start;line-height:125%;writing-mode:lr-tb;text-anchor:start;font-family:Bitstream Vera Sans;-inkscape-font-specification:Bitstream Vera Sans Oblique" /></text>
    <text
       xml:space="preserve"
       style="font-size:40px;font-style:italic;font-weight:normal;fill:#000000;fill-opacity:1;stroke:none;font-family:Bitstream Vera Sans;-inkscape-font-specification:Sans Italic"
       x="284.35794"
       y="110.90001"
       id="text3183"><tspan
         sodipodi:role="line"
         id="tspan3185"
         x="284.35794"
         y="110.90001" /></text>
    <path
       inkscape:connector-curvature="0"
       style="fill:#161414;fill-opacity:1;fill-rule:evenodd;stroke:#1d1b1b;stroke-width:1px;stroke-linecap:butt;stroke-linejoin:miter;stroke-miterlimit:4;stroke-opacity:1;stroke-dasharray:none;stroke-dashoffset:0;marker:none;visibility:visible;display:inline;overflow:visible;enable-background:accumulate"
       d="m 229.97196,227.48988 59.53766,0"
       id="path3323" />
    <path
       sodipodi:type="arc"
       style="fill:#161414;fill-opacity:1;stroke:#1d1b1b;stroke-width:2.54999995;stroke-miterlimit:4;stroke-opacity:1;stroke-dasharray:none"
       id="path3329"
       sodipodi:cx="188.64598"
       sodipodi:cy="120.749"
       sodipodi:rx="3.2829957"
       sodipodi:ry="3.2829957"
       d="m 191.92898,120.749 c 0,1.81315 -1.46985,3.283 -3.283,3.283 -1.81315,0 -3.28299,-1.46985 -3.28299,-3.283 0,-1.81315 1.46984,-3.283 3.28299,-3.283 1.81315,0 3.283,1.46985 3.283,3.283 z"
       transform="translate(36.851972,106.74088)" />
    <path
       style="fill:#161414;fill-opacity:1;fill-rule:evenodd;stroke:#1d1b1b;stroke-width:0.99999994px;stroke-linecap:butt;stroke-linejoin:miter;stroke-miterlimit:4;stroke-opacity:1;stroke-dasharray:none;stroke-dashoffset:0;marker:none;visibility:visible;display:inline;overflow:visible;enable-background:accumulate"
       d="m 415,222.36219 -30.00001,95"
       id="path3379" />
    <path
       sodipodi:type="arc"
       style="fill:#161414;fill-opacity:1;stroke:#1d1b1b;stroke-width:2.54999995;stroke-miterlimit:4;stroke-opacity:1;stroke-dasharray:none"
       id="path3387"
       sodipodi:cx="188.64598"
       sodipodi:cy="120.749"
       sodipodi:rx="3.2829957"
       sodipodi:ry="3.2829957"
       d="m 191.92898,120.749 c 0,1.81315 -1.46985,3.283 -3.283,3.283 -1.81315,0 -3.28299,-1.46985 -3.28299,-3.283 0,-1.81315 1.46984,-3.283 3.28299,-3.283 1.81315,0 3.283,1.46985 3.283,3.283 z"
       transform="translate(148.46382,152.61318)" />
    <path
       sodipodi:type="arc"
       style="fill:#161414;fill-opacity:1;stroke:#1d1b1b;stroke-width:2.54999995;stroke-miterlimit:4;stroke-opacity:1;stroke-dasharray:none"
       id="path3389"
       sodipodi:cx="188.64598"
       sodipodi:cy="120.749"
       sodipodi:rx="3.2829957"
       sodipodi:ry="3.2829957"
       d="m 191.92898,120.749 c 0,1.81315 -1.46985,3.283 -3.283,3.283 -1.81315,0 -3.28299,-1.46985 -3.28299,-3.283 0,-1.81315 1.46984,-3.283 3.28299,-3.283 1.81315,0 3.283,1.46985 3.283,3.283 z"
       transform="translate(210.5101,152.61318)" />
    <g
       transform="matrix(3.1193946,0,0,2.0801114,-539.14926,-153.76204)"
       style="fill:#000000;fill-opacity:1"
       id="g22319" />
    <path
       sodipodi:type="arc"
       style="fill:#8080ff;fill-opacity:1;stroke:#1d1b1b;stroke-width:1;stroke-miterlimit:4;stroke-opacity:1;stroke-dasharray:none"
       id="path3325"
       sodipodi:cx="300.52039"
       sodipodi:cy="121.50661"
       sodipodi:rx="10.606602"
       sodipodi:ry="10.606602"
       d="m 311.12699,121.50661 c 0,5.85786 -4.74874,10.6066 -10.6066,10.6066 -5.85787,0 -10.60661,-4.74874 -10.60661,-10.6066 0,-5.85787 4.74874,-10.6066 10.60661,-10.6066 5.85786,0 10.6066,4.74873 10.6066,10.6066 z"
       transform="translate(-11.036353,105.98328)" />
    <path
       sodipodi:type="arc"
       style="fill:#8080ff;fill-opacity:1;stroke:#1d1b1b;stroke-width:1;stroke-miterlimit:4;stroke-opacity:1;stroke-dasharray:none"
       id="path3327"
       sodipodi:cx="300.52039"
       sodipodi:cy="121.50661"
       sodipodi:rx="10.606602"
       sodipodi:ry="10.606602"
       d="m 311.12699,121.50661 c 0,5.85786 -4.74874,10.6066 -10.6066,10.6066 -5.85787,0 -10.60661,-4.74874 -10.60661,-10.6066 0,-5.85787 4.74874,-10.6066 10.60661,-10.6066 5.85786,0 10.6066,4.74873 10.6066,10.6066 z"
       transform="translate(116.93575,105.98328)" />
    <path
       sodipodi:type="arc"
       style="fill:#8080ff;fill-opacity:1;stroke:#1d1b1b;stroke-width:1;stroke-miterlimit:4;stroke-opacity:1;stroke-dasharray:none"
       id="path3335"
       sodipodi:cx="300.52039"
       sodipodi:cy="121.50661"
       sodipodi:rx="10.606602"
       sodipodi:ry="10.606602"
       d="m 311.12699,121.50661 c 0,5.85786 -4.74874,10.6066 -10.6066,10.6066 -5.85787,0 -10.60661,-4.74874 -10.60661,-10.6066 0,-5.85787 4.74874,-10.6066 10.60661,-10.6066 5.85786,0 10.6066,4.74873 10.6066,10.6066 z"
       transform="translate(244.90789,105.98328)" />
    <path
       sodipodi:type="arc"
       style="fill:#80de10;fill-opacity:1;stroke:#1d1b1b;stroke-width:1;stroke-miterlimit:4;stroke-opacity:1;stroke-dasharray:none"
       id="path3381"
       sodipodi:cx="300.52039"
       sodipodi:cy="121.50661"
       sodipodi:rx="10.606602"
       sodipodi:ry="10.606602"
       d="m 311.12699,121.50661 c 0,5.85786 -4.74874,10.6066 -10.6066,10.6066 -5.85787,0 -10.60661,-4.74874 -10.60661,-10.6066 0,-5.85787 4.74874,-10.6066 10.60661,-10.6066 5.85786,0 10.6066,4.74873 10.6066,10.6066 z"
       transform="translate(84.716945,196.1446)" />
    <path
       sodipodi:type="arc"
       style="fill:#8080ff;fill-opacity:1;stroke:#1d1b1b;stroke-width:1;stroke-miterlimit:4;stroke-opacity:1;stroke-dasharray:none"
       id="path3335-4"
       sodipodi:cx="300.52039"
       sodipodi:cy="121.50661"
       sodipodi:rx="10.606602"
       sodipodi:ry="10.606602"
       d="m 311.12699,121.50661 c 0,5.85786 -4.74874,10.6066 -10.6066,10.6066 -5.85787,0 -10.60661,-4.74874 -10.60661,-10.6066 0,-5.85787 4.74874,-10.6066 10.60661,-10.6066 5.85786,0 10.6066,4.74873 10.6066,10.6066 z"
       transform="translate(362.90789,105.98329)" />
    <path
       sodipodi:type="arc"
       style="fill:#161414;fill-opacity:1;stroke:#1d1b1b;stroke-width:2.54999995;stroke-miterlimit:4;stroke-opacity:1;stroke-dasharray:none"
       id="path3389-3"
       sodipodi:cx="188.64598"
       sodipodi:cy="120.749"
       sodipodi:rx="3.2829957"
       sodipodi:ry="3.2829957"
       d="m 191.92898,120.749 c 0,1.81315 -1.46985,3.283 -3.283,3.283 -1.81315,0 -3.28299,-1.46985 -3.28299,-3.283 0,-1.81315 1.46984,-3.283 3.28299,-3.283 1.81315,0 3.283,1.46985 3.283,3.283 z"
       transform="translate(339.35402,152.61318)" />
    <path
       sodipodi:type="arc"
       style="fill:#80de10;fill-opacity:1;stroke:#1d1b1b;stroke-width:1;stroke-miterlimit:4;stroke-opacity:1;stroke-dasharray:none"
       id="path3381-5"
       sodipodi:cx="300.52039"
       sodipodi:cy="121.50661"
       sodipodi:rx="10.606602"
       sodipodi:ry="10.606602"
       d="m 311.12699,121.50661 c 0,5.85786 -4.74874,10.6066 -10.6066,10.6066 -5.85787,0 -10.60661,-4.74874 -10.60661,-10.6066 0,-5.85787 4.74874,-10.6066 10.60661,-10.6066 5.85786,0 10.6066,4.74873 10.6066,10.6066 z"
       transform="translate(209.71695,196.1446)" />
    <path
       sodipodi:type="arc"
       style="fill:#161414;fill-opacity:1;stroke:#1d1b1b;stroke-width:2.54999995;stroke-miterlimit:4;stroke-opacity:1;stroke-dasharray:none"
       id="path3389-3-8"
       sodipodi:cx="188.64598"
       sodipodi:cy="120.749"
       sodipodi:rx="3.2829957"
       sodipodi:ry="3.2829957"
       d="m 191.92898,120.749 c 0,1.81315 -1.46985,3.283 -3.283,3.283 -1.81315,0 -3.28299,-1.46985 -3.28299,-3.283 0,-1.81315 1.46984,-3.283 3.28299,-3.283 1.81315,0 3.283,1.46985 3.283,3.283 z"
       transform="translate(276.35402,152.61319)" />
    <g
       ns0:text="$p$"
       ns0:preamble=""
       transform="matrix(1.8702703,0,0,1.8461537,-197.78416,-31.501965)"
       id="g3478">
      <defs
         id="defs3480">
        <g
           id="g3482">
          <symbol
             style="overflow:visible"
             overflow="visible"
             id="textext-332a733f-0">
            <path
               style="stroke:none"
               d=""
               id="path3485" />
          </symbol>
          <symbol
             style="overflow:visible"
             overflow="visible"
             id="textext-332a733f-1">
            <path
               style="stroke:none"
               d="M 0.453125,1.21875 C 0.375,1.5625 0.34375,1.625 -0.09375,1.625 c -0.109375,0 -0.21875,0 -0.21875,0.1875 0,0.078125 0.046875,0.125 0.125,0.125 0.265625,0 0.5625,-0.03125 0.828125,-0.03125 0.34375,0 0.671875,0.03125 1,0.03125 0.046875,0 0.171875,0 0.171875,-0.203125 C 1.8125,1.625 1.71875,1.625 1.578125,1.625 c -0.5,0 -0.5,-0.0625 -0.5,-0.15625 0,-0.125 0.421875,-1.75 0.484375,-2 0.125,0.296875 0.40625,0.640625 0.921875,0.640625 1.15625,0 2.40625,-1.453125 2.40625,-2.921875 0,-0.9375 -0.578125,-1.59375 -1.328125,-1.59375 -0.5,0 -0.984375,0.359375 -1.3125,0.75 -0.09375,-0.546875 -0.53125,-0.75 -0.890625,-0.75 -0.46875,0 -0.65625,0.390625 -0.734375,0.5625 C 0.4375,-3.5 0.3125,-2.90625 0.3125,-2.875 c 0,0.109375 0.09375,0.109375 0.109375,0.109375 0.109375,0 0.109375,-0.015625 0.171875,-0.234375 0.171875,-0.703125 0.375,-1.1875 0.734375,-1.1875 0.171875,0 0.3125,0.078125 0.3125,0.453125 0,0.234375 -0.03125,0.34375 -0.078125,0.515625 l -1.109375,4.4375 z m 1.75,-4.328125 C 2.265625,-3.375 2.546875,-3.65625 2.71875,-3.8125 c 0.359375,-0.296875 0.640625,-0.375 0.8125,-0.375 0.390625,0 0.640625,0.34375 0.640625,0.9375 0,0.59375 -0.328125,1.734375 -0.515625,2.109375 -0.34375,0.703125 -0.8125,1.03125 -1.1875,1.03125 C 1.8125,-0.109375 1.6875,-0.9375 1.6875,-1 c 0,-0.015625 0,-0.03125 0.03125,-0.15625 l 0.484375,-1.953125 z m 0,0"
               id="path3488" />
          </symbol>
        </g>
      </defs>
      <g
         id="textext-332a733f-2">
        <g
           style="fill:#000000;fill-opacity:1"
           id="g3491">
          <use
             height="135.91847"
             width="629.03485"
             xlink:href="#textext-332a733f-1"
             x="223.43201"
             y="134.765"
             id="use3493" />
        </g>
      </g>
    </g>
    <g
       id="g4151"
       transform="matrix(1.8702703,0,0,1.8461537,-138.41175,-36.745254)"
       ns0:preamble=""
       ns0:text="$x_0$">
      <defs
         id="defs4153">
        <g
           id="g4155">
          <symbol
             style="overflow:visible"
             id="textext-83331c2f-0"
             overflow="visible">
            <path
               id="path4158"
               d=""
               style="stroke:none" />
          </symbol>
          <symbol
             style="overflow:visible"
             id="textext-83331c2f-1"
             overflow="visible">
            <path
               id="path4161"
               d="M 3.328125,-3.015625 C 3.390625,-3.265625 3.625,-4.1875 4.3125,-4.1875 c 0.046875,0 0.296875,0 0.5,0.125 C 4.53125,-4 4.34375,-3.765625 4.34375,-3.515625 c 0,0.15625 0.109375,0.34375 0.375,0.34375 0.21875,0 0.53125,-0.171875 0.53125,-0.578125 0,-0.515625 -0.578125,-0.65625 -0.921875,-0.65625 -0.578125,0 -0.921875,0.53125 -1.046875,0.75 -0.25,-0.65625 -0.78125,-0.75 -1.078125,-0.75 -1.03125,0 -1.609375,1.28125 -1.609375,1.53125 0,0.109375 0.109375,0.109375 0.125,0.109375 0.078125,0 0.109375,-0.03125 0.125,-0.109375 0.34375,-1.0625 1,-1.3125 1.34375,-1.3125 0.1875,0 0.53125,0.09375 0.53125,0.671875 0,0.3125 -0.171875,0.96875 -0.53125,2.375 -0.15625,0.609375 -0.515625,1.03125 -0.953125,1.03125 -0.0625,0 -0.28125,0 -0.5,-0.125 0.25,-0.0625 0.46875,-0.265625 0.46875,-0.546875 0,-0.265625 -0.21875,-0.34375 -0.359375,-0.34375 -0.3125,0 -0.546875,0.25 -0.546875,0.578125 0,0.453125 0.484375,0.65625 0.921875,0.65625 0.671875,0 1.03125,-0.703125 1.046875,-0.75 0.125,0.359375 0.484375,0.75 1.078125,0.75 1.03125,0 1.59375,-1.28125 1.59375,-1.53125 0,-0.109375 -0.078125,-0.109375 -0.109375,-0.109375 -0.09375,0 -0.109375,0.046875 -0.140625,0.109375 -0.328125,1.078125 -1,1.3125 -1.3125,1.3125 -0.390625,0 -0.546875,-0.3125 -0.546875,-0.65625 0,-0.21875 0.046875,-0.4375 0.15625,-0.875 l 0.34375,-1.375 z m 0,0"
               style="stroke:none" />
          </symbol>
          <symbol
             style="overflow:visible"
             id="textext-83331c2f-2"
             overflow="visible">
            <path
               id="path4164"
               d=""
               style="stroke:none" />
          </symbol>
          <symbol
             style="overflow:visible"
             id="textext-83331c2f-3"
             overflow="visible">
            <path
               id="path4167"
               d="M 3.59375,-2.21875 C 3.59375,-2.984375 3.5,-3.546875 3.1875,-4.03125 2.96875,-4.34375 2.53125,-4.625 1.984375,-4.625 c -1.625,0 -1.625,1.90625 -1.625,2.40625 0,0.5 0,2.359375 1.625,2.359375 1.609375,0 1.609375,-1.859375 1.609375,-2.359375 z M 1.984375,-0.0625 c -0.328125,0 -0.75,-0.1875 -0.890625,-0.75 C 1,-1.21875 1,-1.796875 1,-2.3125 1,-2.828125 1,-3.359375 1.09375,-3.734375 1.25,-4.28125 1.6875,-4.4375 1.984375,-4.4375 c 0.375,0 0.734375,0.234375 0.859375,0.640625 0.109375,0.375 0.125,0.875 0.125,1.484375 0,0.515625 0,1.03125 -0.09375,1.46875 -0.140625,0.640625 -0.609375,0.78125 -0.890625,0.78125 z m 0,0"
               style="stroke:none" />
          </symbol>
        </g>
      </defs>
      <g
         id="textext-83331c2f-4">
        <g
           id="g4170"
           style="fill:#000000;fill-opacity:1">
          <use
             height="135.91847"
             width="629.03485"
             id="use4172"
             y="134.765"
             x="223.43201"
             xlink:href="#textext-83331c2f-1" />
        </g>
        <g
           id="g4174"
           style="fill:#000000;fill-opacity:1">
          <use
             height="135.91847"
             width="629.03485"
             id="use4176"
             y="136.259"
             x="229.12601"
             xlink:href="#textext-83331c2f-3" />
        </g>
      </g>
    </g>
    <g
       id="g5497"
       transform="matrix(1.8702703,0,0,1.8461537,-11.061546,-36.437561)"
       ns0:preamble=""
       ns0:text="$x_1$">
      <defs
         id="defs5499">
        <g
           id="g5501">
          <symbol
             style="overflow:visible"
             id="textext-530540ae-0"
             overflow="visible">
            <path
               id="path5504"
               d=""
               style="stroke:none" />
          </symbol>
          <symbol
             style="overflow:visible"
             id="textext-530540ae-1"
             overflow="visible">
            <path
               id="path5507"
               d="M 3.328125,-3.015625 C 3.390625,-3.265625 3.625,-4.1875 4.3125,-4.1875 c 0.046875,0 0.296875,0 0.5,0.125 C 4.53125,-4 4.34375,-3.765625 4.34375,-3.515625 c 0,0.15625 0.109375,0.34375 0.375,0.34375 0.21875,0 0.53125,-0.171875 0.53125,-0.578125 0,-0.515625 -0.578125,-0.65625 -0.921875,-0.65625 -0.578125,0 -0.921875,0.53125 -1.046875,0.75 -0.25,-0.65625 -0.78125,-0.75 -1.078125,-0.75 -1.03125,0 -1.609375,1.28125 -1.609375,1.53125 0,0.109375 0.109375,0.109375 0.125,0.109375 0.078125,0 0.109375,-0.03125 0.125,-0.109375 0.34375,-1.0625 1,-1.3125 1.34375,-1.3125 0.1875,0 0.53125,0.09375 0.53125,0.671875 0,0.3125 -0.171875,0.96875 -0.53125,2.375 -0.15625,0.609375 -0.515625,1.03125 -0.953125,1.03125 -0.0625,0 -0.28125,0 -0.5,-0.125 0.25,-0.0625 0.46875,-0.265625 0.46875,-0.546875 0,-0.265625 -0.21875,-0.34375 -0.359375,-0.34375 -0.3125,0 -0.546875,0.25 -0.546875,0.578125 0,0.453125 0.484375,0.65625 0.921875,0.65625 0.671875,0 1.03125,-0.703125 1.046875,-0.75 0.125,0.359375 0.484375,0.75 1.078125,0.75 1.03125,0 1.59375,-1.28125 1.59375,-1.53125 0,-0.109375 -0.078125,-0.109375 -0.109375,-0.109375 -0.09375,0 -0.109375,0.046875 -0.140625,0.109375 -0.328125,1.078125 -1,1.3125 -1.3125,1.3125 -0.390625,0 -0.546875,-0.3125 -0.546875,-0.65625 0,-0.21875 0.046875,-0.4375 0.15625,-0.875 l 0.34375,-1.375 z m 0,0"
               style="stroke:none" />
          </symbol>
          <symbol
             style="overflow:visible"
             id="textext-530540ae-2"
             overflow="visible">
            <path
               id="path5510"
               d=""
               style="stroke:none" />
          </symbol>
          <symbol
             style="overflow:visible"
             id="textext-530540ae-3"
             overflow="visible">
            <path
               id="path5513"
               d="m 2.328125,-4.4375 c 0,-0.1875 0,-0.1875 -0.203125,-0.1875 -0.453125,0.4375 -1.078125,0.4375 -1.359375,0.4375 l 0,0.25 c 0.15625,0 0.625,0 1,-0.1875 l 0,3.546875 c 0,0.234375 0,0.328125 -0.6875,0.328125 l -0.265625,0 0,0.25 c 0.125,0 0.984375,-0.03125 1.234375,-0.03125 0.21875,0 1.09375,0.03125 1.25,0.03125 l 0,-0.25 -0.265625,0 c -0.703125,0 -0.703125,-0.09375 -0.703125,-0.328125 l 0,-3.859375 z m 0,0"
               style="stroke:none" />
          </symbol>
        </g>
      </defs>
      <g
         id="textext-530540ae-4">
        <g
           id="g5516"
           style="fill:#000000;fill-opacity:1">
          <use
             height="135.91847"
             width="629.03485"
             id="use5518"
             y="134.765"
             x="223.43201"
             xlink:href="#textext-530540ae-1" />
        </g>
        <g
           id="g5520"
           style="fill:#000000;fill-opacity:1">
          <use
             height="135.91847"
             width="629.03485"
             id="use5522"
             y="136.259"
             x="229.12601"
             xlink:href="#textext-530540ae-3" />
        </g>
      </g>
    </g>
    <g
       ns0:text="$l_1$"
       ns0:preamble=""
       transform="matrix(1.8702703,0,0,1.8461537,-60.166047,72.823721)"
       id="g8842">
      <defs
         id="defs8844">
        <g
           id="g8846">
          <symbol
             style="overflow:visible"
             overflow="visible"
             id="textext-1af71567-0">
            <path
               style="stroke:none"
               d=""
               id="path8849" />
          </symbol>
          <symbol
             style="overflow:visible"
             overflow="visible"
             id="textext-1af71567-1">
            <path
               style="stroke:none"
               d="m 2.578125,-6.8125 c 0,0 0,-0.109375 -0.140625,-0.109375 -0.21875,0 -0.953125,0.078125 -1.21875,0.109375 -0.078125,0 -0.1875,0.015625 -0.1875,0.203125 0,0.109375 0.109375,0.109375 0.25,0.109375 0.484375,0 0.5,0.09375 0.5,0.171875 L 1.75,-6.125 0.484375,-1.140625 C 0.453125,-1.03125 0.4375,-0.96875 0.4375,-0.8125 c 0,0.578125 0.4375,0.921875 0.90625,0.921875 0.328125,0 0.578125,-0.203125 0.75,-0.5625 0.171875,-0.375 0.296875,-0.953125 0.296875,-0.96875 0,-0.109375 -0.09375,-0.109375 -0.125,-0.109375 -0.09375,0 -0.109375,0.046875 -0.125,0.1875 C 1.96875,-0.703125 1.78125,-0.109375 1.375,-0.109375 c -0.296875,0 -0.296875,-0.3125 -0.296875,-0.453125 0,-0.25 0.015625,-0.296875 0.0625,-0.484375 l 1.4375,-5.765625 z m 0,0"
               id="path8852" />
          </symbol>
          <symbol
             style="overflow:visible"
             overflow="visible"
             id="textext-1af71567-2">
            <path
               style="stroke:none"
               d=""
               id="path8855" />
          </symbol>
          <symbol
             style="overflow:visible"
             overflow="visible"
             id="textext-1af71567-3">
            <path
               style="stroke:none"
               d="m 2.328125,-4.4375 c 0,-0.1875 0,-0.1875 -0.203125,-0.1875 -0.453125,0.4375 -1.078125,0.4375 -1.359375,0.4375 l 0,0.25 c 0.15625,0 0.625,0 1,-0.1875 l 0,3.546875 c 0,0.234375 0,0.328125 -0.6875,0.328125 l -0.265625,0 0,0.25 c 0.125,0 0.984375,-0.03125 1.234375,-0.03125 0.21875,0 1.09375,0.03125 1.25,0.03125 l 0,-0.25 -0.265625,0 c -0.703125,0 -0.703125,-0.09375 -0.703125,-0.328125 l 0,-3.859375 z m 0,0"
               id="path8858" />
          </symbol>
        </g>
      </defs>
      <g
         id="textext-1af71567-4">
        <g
           style="fill:#000000;fill-opacity:1"
           id="g8861">
          <use
             height="135.91847"
             width="629.03485"
             xlink:href="#textext-1af71567-1"
             x="223.43201"
             y="134.765"
             id="use8863" />
        </g>
        <g
           style="fill:#000000;fill-opacity:1"
           id="g8865">
          <use
             height="135.91847"
             width="629.03485"
             xlink:href="#textext-1af71567-3"
             x="226.405"
             y="136.259"
             id="use8867" />
        </g>
      </g>
    </g>
    <g
       id="g9495"
       transform="matrix(1.8702703,0,0,1.8461537,64.833957,72.823717)"
       ns0:preamble=""
       ns0:text="$l_2$">
      <defs
         id="defs9497">
        <g
           id="g9499">
          <symbol
             style="overflow:visible"
             id="textext-fecc1918-0"
             overflow="visible">
            <path
               id="path9502"
               d=""
               style="stroke:none" />
          </symbol>
          <symbol
             style="overflow:visible"
             id="textext-fecc1918-1"
             overflow="visible">
            <path
               id="path9505"
               d="m 2.578125,-6.8125 c 0,0 0,-0.109375 -0.140625,-0.109375 -0.21875,0 -0.953125,0.078125 -1.21875,0.109375 -0.078125,0 -0.1875,0.015625 -0.1875,0.203125 0,0.109375 0.109375,0.109375 0.25,0.109375 0.484375,0 0.5,0.09375 0.5,0.171875 L 1.75,-6.125 0.484375,-1.140625 C 0.453125,-1.03125 0.4375,-0.96875 0.4375,-0.8125 c 0,0.578125 0.4375,0.921875 0.90625,0.921875 0.328125,0 0.578125,-0.203125 0.75,-0.5625 0.171875,-0.375 0.296875,-0.953125 0.296875,-0.96875 0,-0.109375 -0.09375,-0.109375 -0.125,-0.109375 -0.09375,0 -0.109375,0.046875 -0.125,0.1875 C 1.96875,-0.703125 1.78125,-0.109375 1.375,-0.109375 c -0.296875,0 -0.296875,-0.3125 -0.296875,-0.453125 0,-0.25 0.015625,-0.296875 0.0625,-0.484375 l 1.4375,-5.765625 z m 0,0"
               style="stroke:none" />
          </symbol>
          <symbol
             style="overflow:visible"
             id="textext-fecc1918-2"
             overflow="visible">
            <path
               id="path9508"
               d=""
               style="stroke:none" />
          </symbol>
          <symbol
             style="overflow:visible"
             id="textext-fecc1918-3"
             overflow="visible">
            <path
               id="path9511"
               d="m 3.515625,-1.265625 -0.234375,0 c -0.015625,0.15625 -0.09375,0.5625 -0.1875,0.625 -0.046875,0.046875 -0.578125,0.046875 -0.6875,0.046875 l -1.28125,0 c 0.734375,-0.640625 0.984375,-0.84375 1.390625,-1.171875 0.515625,-0.40625 1,-0.84375 1,-1.5 0,-0.84375 -0.734375,-1.359375 -1.625,-1.359375 -0.859375,0 -1.453125,0.609375 -1.453125,1.25 0,0.34375 0.296875,0.390625 0.375,0.390625 0.15625,0 0.359375,-0.125 0.359375,-0.375 0,-0.125 -0.046875,-0.375 -0.40625,-0.375 C 0.984375,-4.21875 1.453125,-4.375 1.78125,-4.375 c 0.703125,0 1.0625,0.546875 1.0625,1.109375 0,0.609375 -0.4375,1.078125 -0.65625,1.328125 L 0.515625,-0.265625 C 0.4375,-0.203125 0.4375,-0.1875 0.4375,0 l 2.875,0 0.203125,-1.265625 z m 0,0"
               style="stroke:none" />
          </symbol>
        </g>
      </defs>
      <g
         id="textext-fecc1918-4">
        <g
           id="g9514"
           style="fill:#000000;fill-opacity:1">
          <use
             height="135.91847"
             width="629.03485"
             id="use9516"
             y="134.765"
             x="223.43201"
             xlink:href="#textext-fecc1918-1" />
        </g>
        <g
           id="g9518"
           style="fill:#000000;fill-opacity:1">
          <use
             height="135.91847"
             width="629.03485"
             id="use9520"
             y="136.259"
             x="226.405"
             xlink:href="#textext-fecc1918-3" />
        </g>
      </g>
    </g>
    <g
       id="g3388"
       transform="matrix(1.8702703,0,0,1.8461537,-69.97432,31.631413)"
       ns0:preamble=""
       ns0:text="$m_1$">
      <defs
         id="defs3390">
        <g
           id="g3392">
          <symbol
             style="overflow:visible"
             id="textext-29e05dcf-0"
             overflow="visible">
            <path
               id="path3395"
               d=""
               style="stroke:none" />
          </symbol>
          <symbol
             style="overflow:visible"
             id="textext-29e05dcf-1"
             overflow="visible">
            <path
               id="path3398"
               d="m 0.875,-0.59375 c -0.03125,0.15625 -0.09375,0.390625 -0.09375,0.4375 0,0.171875 0.140625,0.265625 0.296875,0.265625 0.125,0 0.296875,-0.078125 0.375,-0.28125 0,-0.015625 0.125,-0.484375 0.1875,-0.734375 l 0.21875,-0.890625 C 1.90625,-2.03125 1.96875,-2.25 2.03125,-2.46875 c 0.03125,-0.171875 0.109375,-0.46875 0.125,-0.5 0.140625,-0.3125 0.671875,-1.21875 1.625,-1.21875 0.453125,0 0.53125,0.375 0.53125,0.703125 0,0.25 -0.0625,0.53125 -0.140625,0.828125 L 3.890625,-1.5 3.6875,-0.75 c -0.03125,0.203125 -0.125,0.546875 -0.125,0.59375 0,0.171875 0.140625,0.265625 0.28125,0.265625 0.3125,0 0.375,-0.25 0.453125,-0.5625 0.140625,-0.5625 0.515625,-2.015625 0.59375,-2.40625 0.03125,-0.125 0.5625,-1.328125 1.65625,-1.328125 0.421875,0 0.53125,0.34375 0.53125,0.703125 0,0.5625 -0.421875,1.703125 -0.625,2.234375 -0.078125,0.234375 -0.125,0.34375 -0.125,0.546875 0,0.46875 0.34375,0.8125 0.8125,0.8125 0.9375,0 1.3125,-1.453125 1.3125,-1.53125 0,-0.109375 -0.09375,-0.109375 -0.125,-0.109375 -0.09375,0 -0.09375,0.03125 -0.140625,0.1875 -0.15625,0.53125 -0.46875,1.234375 -1.015625,1.234375 -0.171875,0 -0.25,-0.09375 -0.25,-0.328125 0,-0.25 0.09375,-0.484375 0.1875,-0.703125 0.1875,-0.53125 0.609375,-1.625 0.609375,-2.203125 0,-0.640625 -0.40625,-1.0625 -1.15625,-1.0625 -0.734375,0 -1.25,0.4375 -1.625,0.96875 0,-0.125 -0.03125,-0.46875 -0.3125,-0.703125 -0.25,-0.21875 -0.5625,-0.265625 -0.8125,-0.265625 -0.90625,0 -1.390625,0.640625 -1.5625,0.875 -0.046875,-0.578125 -0.46875,-0.875 -0.921875,-0.875 -0.453125,0 -0.640625,0.390625 -0.734375,0.5625 -0.171875,0.359375 -0.296875,0.9375 -0.296875,0.96875 0,0.109375 0.09375,0.109375 0.109375,0.109375 0.109375,0 0.109375,-0.015625 0.171875,-0.234375 0.171875,-0.703125 0.375,-1.1875 0.734375,-1.1875 0.15625,0 0.296875,0.078125 0.296875,0.453125 0,0.21875 -0.03125,0.328125 -0.15625,0.84375 L 0.875,-0.59375 z m 0,0"
               style="stroke:none" />
          </symbol>
          <symbol
             style="overflow:visible"
             id="textext-29e05dcf-2"
             overflow="visible">
            <path
               id="path3401"
               d=""
               style="stroke:none" />
          </symbol>
          <symbol
             style="overflow:visible"
             id="textext-29e05dcf-3"
             overflow="visible">
            <path
               id="path3404"
               d="m 2.328125,-4.4375 c 0,-0.1875 0,-0.1875 -0.203125,-0.1875 -0.453125,0.4375 -1.078125,0.4375 -1.359375,0.4375 l 0,0.25 c 0.15625,0 0.625,0 1,-0.1875 l 0,3.546875 c 0,0.234375 0,0.328125 -0.6875,0.328125 l -0.265625,0 0,0.25 c 0.125,0 0.984375,-0.03125 1.234375,-0.03125 0.21875,0 1.09375,0.03125 1.25,0.03125 l 0,-0.25 -0.265625,0 c -0.703125,0 -0.703125,-0.09375 -0.703125,-0.328125 l 0,-3.859375 z m 0,0"
               style="stroke:none" />
          </symbol>
        </g>
      </defs>
      <g
         id="textext-29e05dcf-4">
        <g
           id="g3407"
           style="fill:#000000;fill-opacity:1">
          <use
             height="125.48501"
             width="455.02524"
             id="use3409"
             y="134.765"
             x="223.43201"
             xlink:href="#textext-29e05dcf-1" />
        </g>
        <g
           id="g3411"
           style="fill:#000000;fill-opacity:1">
          <use
             height="125.48501"
             width="455.02524"
             id="use3413"
             y="136.259"
             x="232.179"
             xlink:href="#textext-29e05dcf-3" />
        </g>
      </g>
    </g>
    <g
       ns0:text="$m_2$"
       ns0:preamble=""
       transform="matrix(1.8702703,0,0,1.8461537,-11.166047,31.631413)"
       id="g3995">
      <defs
         id="defs3997">
        <g
           id="g3999">
          <symbol
             style="overflow:visible"
             overflow="visible"
             id="textext-1dbe97cd-0">
            <path
               style="stroke:none"
               d=""
               id="path4002" />
          </symbol>
          <symbol
             style="overflow:visible"
             overflow="visible"
             id="textext-1dbe97cd-1">
            <path
               style="stroke:none"
               d="m 0.875,-0.59375 c -0.03125,0.15625 -0.09375,0.390625 -0.09375,0.4375 0,0.171875 0.140625,0.265625 0.296875,0.265625 0.125,0 0.296875,-0.078125 0.375,-0.28125 0,-0.015625 0.125,-0.484375 0.1875,-0.734375 l 0.21875,-0.890625 C 1.90625,-2.03125 1.96875,-2.25 2.03125,-2.46875 c 0.03125,-0.171875 0.109375,-0.46875 0.125,-0.5 0.140625,-0.3125 0.671875,-1.21875 1.625,-1.21875 0.453125,0 0.53125,0.375 0.53125,0.703125 0,0.25 -0.0625,0.53125 -0.140625,0.828125 L 3.890625,-1.5 3.6875,-0.75 c -0.03125,0.203125 -0.125,0.546875 -0.125,0.59375 0,0.171875 0.140625,0.265625 0.28125,0.265625 0.3125,0 0.375,-0.25 0.453125,-0.5625 0.140625,-0.5625 0.515625,-2.015625 0.59375,-2.40625 0.03125,-0.125 0.5625,-1.328125 1.65625,-1.328125 0.421875,0 0.53125,0.34375 0.53125,0.703125 0,0.5625 -0.421875,1.703125 -0.625,2.234375 -0.078125,0.234375 -0.125,0.34375 -0.125,0.546875 0,0.46875 0.34375,0.8125 0.8125,0.8125 0.9375,0 1.3125,-1.453125 1.3125,-1.53125 0,-0.109375 -0.09375,-0.109375 -0.125,-0.109375 -0.09375,0 -0.09375,0.03125 -0.140625,0.1875 -0.15625,0.53125 -0.46875,1.234375 -1.015625,1.234375 -0.171875,0 -0.25,-0.09375 -0.25,-0.328125 0,-0.25 0.09375,-0.484375 0.1875,-0.703125 0.1875,-0.53125 0.609375,-1.625 0.609375,-2.203125 0,-0.640625 -0.40625,-1.0625 -1.15625,-1.0625 -0.734375,0 -1.25,0.4375 -1.625,0.96875 0,-0.125 -0.03125,-0.46875 -0.3125,-0.703125 -0.25,-0.21875 -0.5625,-0.265625 -0.8125,-0.265625 -0.90625,0 -1.390625,0.640625 -1.5625,0.875 -0.046875,-0.578125 -0.46875,-0.875 -0.921875,-0.875 -0.453125,0 -0.640625,0.390625 -0.734375,0.5625 -0.171875,0.359375 -0.296875,0.9375 -0.296875,0.96875 0,0.109375 0.09375,0.109375 0.109375,0.109375 0.109375,0 0.109375,-0.015625 0.171875,-0.234375 0.171875,-0.703125 0.375,-1.1875 0.734375,-1.1875 0.15625,0 0.296875,0.078125 0.296875,0.453125 0,0.21875 -0.03125,0.328125 -0.15625,0.84375 L 0.875,-0.59375 z m 0,0"
               id="path4005" />
          </symbol>
          <symbol
             style="overflow:visible"
             overflow="visible"
             id="textext-1dbe97cd-2">
            <path
               style="stroke:none"
               d=""
               id="path4008" />
          </symbol>
          <symbol
             style="overflow:visible"
             overflow="visible"
             id="textext-1dbe97cd-3">
            <path
               style="stroke:none"
               d="m 3.515625,-1.265625 -0.234375,0 c -0.015625,0.15625 -0.09375,0.5625 -0.1875,0.625 -0.046875,0.046875 -0.578125,0.046875 -0.6875,0.046875 l -1.28125,0 c 0.734375,-0.640625 0.984375,-0.84375 1.390625,-1.171875 0.515625,-0.40625 1,-0.84375 1,-1.5 0,-0.84375 -0.734375,-1.359375 -1.625,-1.359375 -0.859375,0 -1.453125,0.609375 -1.453125,1.25 0,0.34375 0.296875,0.390625 0.375,0.390625 0.15625,0 0.359375,-0.125 0.359375,-0.375 0,-0.125 -0.046875,-0.375 -0.40625,-0.375 C 0.984375,-4.21875 1.453125,-4.375 1.78125,-4.375 c 0.703125,0 1.0625,0.546875 1.0625,1.109375 0,0.609375 -0.4375,1.078125 -0.65625,1.328125 L 0.515625,-0.265625 C 0.4375,-0.203125 0.4375,-0.1875 0.4375,0 l 2.875,0 0.203125,-1.265625 z m 0,0"
               id="path4011" />
          </symbol>
        </g>
      </defs>
      <g
         id="textext-1dbe97cd-4">
        <g
           style="fill:#000000;fill-opacity:1"
           id="g4014">
          <use
             height="125.48501"
             width="455.02524"
             xlink:href="#textext-1dbe97cd-1"
             x="223.43201"
             y="134.765"
             id="use4016" />
        </g>
        <g
           style="fill:#000000;fill-opacity:1"
           id="g4018">
          <use
             height="125.48501"
             width="455.02524"
             xlink:href="#textext-1dbe97cd-3"
             x="232.179"
             y="136.259"
             id="use4020" />
        </g>
      </g>
    </g>
    <g
       id="g4602"
       transform="matrix(1.8702703,0,0,1.8461537,55.833975,31.631417)"
       ns0:preamble=""
       ns0:text="$m_3$">
      <defs
         id="defs4604">
        <g
           id="g4606">
          <symbol
             style="overflow:visible"
             id="textext-586ff9f7-0"
             overflow="visible">
            <path
               id="path4609"
               d=""
               style="stroke:none" />
          </symbol>
          <symbol
             style="overflow:visible"
             id="textext-586ff9f7-1"
             overflow="visible">
            <path
               id="path4612"
               d="m 0.875,-0.59375 c -0.03125,0.15625 -0.09375,0.390625 -0.09375,0.4375 0,0.171875 0.140625,0.265625 0.296875,0.265625 0.125,0 0.296875,-0.078125 0.375,-0.28125 0,-0.015625 0.125,-0.484375 0.1875,-0.734375 l 0.21875,-0.890625 C 1.90625,-2.03125 1.96875,-2.25 2.03125,-2.46875 c 0.03125,-0.171875 0.109375,-0.46875 0.125,-0.5 0.140625,-0.3125 0.671875,-1.21875 1.625,-1.21875 0.453125,0 0.53125,0.375 0.53125,0.703125 0,0.25 -0.0625,0.53125 -0.140625,0.828125 L 3.890625,-1.5 3.6875,-0.75 c -0.03125,0.203125 -0.125,0.546875 -0.125,0.59375 0,0.171875 0.140625,0.265625 0.28125,0.265625 0.3125,0 0.375,-0.25 0.453125,-0.5625 0.140625,-0.5625 0.515625,-2.015625 0.59375,-2.40625 0.03125,-0.125 0.5625,-1.328125 1.65625,-1.328125 0.421875,0 0.53125,0.34375 0.53125,0.703125 0,0.5625 -0.421875,1.703125 -0.625,2.234375 -0.078125,0.234375 -0.125,0.34375 -0.125,0.546875 0,0.46875 0.34375,0.8125 0.8125,0.8125 0.9375,0 1.3125,-1.453125 1.3125,-1.53125 0,-0.109375 -0.09375,-0.109375 -0.125,-0.109375 -0.09375,0 -0.09375,0.03125 -0.140625,0.1875 -0.15625,0.53125 -0.46875,1.234375 -1.015625,1.234375 -0.171875,0 -0.25,-0.09375 -0.25,-0.328125 0,-0.25 0.09375,-0.484375 0.1875,-0.703125 0.1875,-0.53125 0.609375,-1.625 0.609375,-2.203125 0,-0.640625 -0.40625,-1.0625 -1.15625,-1.0625 -0.734375,0 -1.25,0.4375 -1.625,0.96875 0,-0.125 -0.03125,-0.46875 -0.3125,-0.703125 -0.25,-0.21875 -0.5625,-0.265625 -0.8125,-0.265625 -0.90625,0 -1.390625,0.640625 -1.5625,0.875 -0.046875,-0.578125 -0.46875,-0.875 -0.921875,-0.875 -0.453125,0 -0.640625,0.390625 -0.734375,0.5625 -0.171875,0.359375 -0.296875,0.9375 -0.296875,0.96875 0,0.109375 0.09375,0.109375 0.109375,0.109375 0.109375,0 0.109375,-0.015625 0.171875,-0.234375 0.171875,-0.703125 0.375,-1.1875 0.734375,-1.1875 0.15625,0 0.296875,0.078125 0.296875,0.453125 0,0.21875 -0.03125,0.328125 -0.15625,0.84375 L 0.875,-0.59375 z m 0,0"
               style="stroke:none" />
          </symbol>
          <symbol
             style="overflow:visible"
             id="textext-586ff9f7-2"
             overflow="visible">
            <path
               id="path4615"
               d=""
               style="stroke:none" />
          </symbol>
          <symbol
             style="overflow:visible"
             id="textext-586ff9f7-3"
             overflow="visible">
            <path
               id="path4618"
               d="m 1.90625,-2.328125 c 0.546875,0 0.9375,0.375 0.9375,1.125 0,0.859375 -0.515625,1.125 -0.90625,1.125 -0.28125,0 -0.90625,-0.078125 -1.1875,-0.5 0.328125,0 0.40625,-0.234375 0.40625,-0.390625 0,-0.21875 -0.171875,-0.375 -0.390625,-0.375 -0.1875,0 -0.390625,0.125 -0.390625,0.40625 0,0.65625 0.71875,1.078125 1.5625,1.078125 0.96875,0 1.640625,-0.65625 1.640625,-1.34375 0,-0.546875 -0.4375,-1.09375 -1.203125,-1.25 0.71875,-0.265625 0.984375,-0.78125 0.984375,-1.21875 0,-0.546875 -0.625,-0.953125 -1.40625,-0.953125 -0.765625,0 -1.359375,0.375 -1.359375,0.9375 0,0.234375 0.15625,0.359375 0.359375,0.359375 0.21875,0 0.359375,-0.15625 0.359375,-0.34375 0,-0.203125 -0.140625,-0.359375 -0.359375,-0.375 0.25,-0.296875 0.71875,-0.375 0.984375,-0.375 0.3125,0 0.75,0.15625 0.75,0.75 0,0.296875 -0.09375,0.625 -0.28125,0.828125 -0.21875,0.265625 -0.421875,0.28125 -0.765625,0.3125 -0.171875,0.015625 -0.1875,0.015625 -0.21875,0.015625 -0.015625,0 -0.078125,0.015625 -0.078125,0.09375 0,0.09375 0.0625,0.09375 0.1875,0.09375 l 0.375,0 z m 0,0"
               style="stroke:none" />
          </symbol>
        </g>
      </defs>
      <g
         id="textext-586ff9f7-4">
        <g
           id="g4621"
           style="fill:#000000;fill-opacity:1">
          <use
             height="125.48501"
             width="455.02524"
             id="use4623"
             y="134.765"
             x="223.43201"
             xlink:href="#textext-586ff9f7-1" />
        </g>
        <g
           id="g4625"
           style="fill:#000000;fill-opacity:1">
          <use
             height="125.48501"
             width="455.02524"
             id="use4627"
             y="136.259"
             x="232.179"
             xlink:href="#textext-586ff9f7-3" />
        </g>
      </g>
    </g>
    <g
       ns0:text="$m_4$"
       ns0:preamble=""
       transform="matrix(1.8702703,0,0,1.8461537,116.83397,31.631413)"
       id="g5209">
      <defs
         id="defs5211">
        <g
           id="g5213">
          <symbol
             style="overflow:visible"
             overflow="visible"
             id="textext-176fd077-0">
            <path
               style="stroke:none"
               d=""
               id="path5216" />
          </symbol>
          <symbol
             style="overflow:visible"
             overflow="visible"
             id="textext-176fd077-1">
            <path
               style="stroke:none"
               d="m 0.875,-0.59375 c -0.03125,0.15625 -0.09375,0.390625 -0.09375,0.4375 0,0.171875 0.140625,0.265625 0.296875,0.265625 0.125,0 0.296875,-0.078125 0.375,-0.28125 0,-0.015625 0.125,-0.484375 0.1875,-0.734375 l 0.21875,-0.890625 C 1.90625,-2.03125 1.96875,-2.25 2.03125,-2.46875 c 0.03125,-0.171875 0.109375,-0.46875 0.125,-0.5 0.140625,-0.3125 0.671875,-1.21875 1.625,-1.21875 0.453125,0 0.53125,0.375 0.53125,0.703125 0,0.25 -0.0625,0.53125 -0.140625,0.828125 L 3.890625,-1.5 3.6875,-0.75 c -0.03125,0.203125 -0.125,0.546875 -0.125,0.59375 0,0.171875 0.140625,0.265625 0.28125,0.265625 0.3125,0 0.375,-0.25 0.453125,-0.5625 0.140625,-0.5625 0.515625,-2.015625 0.59375,-2.40625 0.03125,-0.125 0.5625,-1.328125 1.65625,-1.328125 0.421875,0 0.53125,0.34375 0.53125,0.703125 0,0.5625 -0.421875,1.703125 -0.625,2.234375 -0.078125,0.234375 -0.125,0.34375 -0.125,0.546875 0,0.46875 0.34375,0.8125 0.8125,0.8125 0.9375,0 1.3125,-1.453125 1.3125,-1.53125 0,-0.109375 -0.09375,-0.109375 -0.125,-0.109375 -0.09375,0 -0.09375,0.03125 -0.140625,0.1875 -0.15625,0.53125 -0.46875,1.234375 -1.015625,1.234375 -0.171875,0 -0.25,-0.09375 -0.25,-0.328125 0,-0.25 0.09375,-0.484375 0.1875,-0.703125 0.1875,-0.53125 0.609375,-1.625 0.609375,-2.203125 0,-0.640625 -0.40625,-1.0625 -1.15625,-1.0625 -0.734375,0 -1.25,0.4375 -1.625,0.96875 0,-0.125 -0.03125,-0.46875 -0.3125,-0.703125 -0.25,-0.21875 -0.5625,-0.265625 -0.8125,-0.265625 -0.90625,0 -1.390625,0.640625 -1.5625,0.875 -0.046875,-0.578125 -0.46875,-0.875 -0.921875,-0.875 -0.453125,0 -0.640625,0.390625 -0.734375,0.5625 -0.171875,0.359375 -0.296875,0.9375 -0.296875,0.96875 0,0.109375 0.09375,0.109375 0.109375,0.109375 0.109375,0 0.109375,-0.015625 0.171875,-0.234375 0.171875,-0.703125 0.375,-1.1875 0.734375,-1.1875 0.15625,0 0.296875,0.078125 0.296875,0.453125 0,0.21875 -0.03125,0.328125 -0.15625,0.84375 L 0.875,-0.59375 z m 0,0"
               id="path5219" />
          </symbol>
          <symbol
             style="overflow:visible"
             overflow="visible"
             id="textext-176fd077-2">
            <path
               style="stroke:none"
               d=""
               id="path5222" />
          </symbol>
          <symbol
             style="overflow:visible"
             overflow="visible"
             id="textext-176fd077-3">
            <path
               style="stroke:none"
               d="m 3.6875,-1.140625 0,-0.25 -0.78125,0 0,-3.109375 c 0,-0.140625 0,-0.203125 -0.140625,-0.203125 -0.09375,0 -0.125,0 -0.1875,0.109375 l -2.3125,3.203125 0,0.25 2.0625,0 0,0.5625 c 0,0.25 0,0.328125 -0.578125,0.328125 l -0.1875,0 0,0.25 C 1.921875,-0.015625 2.359375,-0.03125 2.609375,-0.03125 2.875,-0.03125 3.3125,-0.015625 3.671875,0 l 0,-0.25 -0.1875,0 C 2.90625,-0.25 2.90625,-0.328125 2.90625,-0.578125 l 0,-0.5625 0.78125,0 z M 2.375,-3.9375 l 0,2.546875 -1.84375,0 L 2.375,-3.9375 z m 0,0"
               id="path5225" />
          </symbol>
        </g>
      </defs>
      <g
         id="textext-176fd077-4">
        <g
           style="fill:#000000;fill-opacity:1"
           id="g5228">
          <use
             height="125.48501"
             width="455.02524"
             xlink:href="#textext-176fd077-1"
             x="223.43201"
             y="134.765"
             id="use5230" />
        </g>
        <g
           style="fill:#000000;fill-opacity:1"
           id="g5232">
          <use
             height="125.48501"
             width="455.02524"
             xlink:href="#textext-176fd077-3"
             x="232.179"
             y="136.259"
             id="use5234" />
        </g>
      </g>
    </g>
    <path
       sodipodi:type="arc"
       style="fill:#161414;fill-opacity:1;stroke:#1d1b1b;stroke-width:2.54999995;stroke-miterlimit:4;stroke-opacity:1;stroke-dasharray:none"
       id="path3389-3-0"
       sodipodi:cx="188.64598"
       sodipodi:cy="120.749"
       sodipodi:rx="3.2829957"
       sodipodi:ry="3.2829957"
       d="m 191.92898,120.749 c 0,1.81315 -1.46985,3.283 -3.283,3.283 -1.81315,0 -3.28299,-1.46985 -3.28299,-3.283 0,-1.81315 1.46984,-3.283 3.28299,-3.283 1.81315,0 3.283,1.46985 3.283,3.283 z"
       transform="translate(397.58065,153.0088)" />
    <g
       id="g3499"
       transform="matrix(1.8702703,0,0,1.8461537,177.83397,30.631415)"
       ns0:preamble=""
       ns0:text="$m_5$">
      <defs
         id="defs3501">
        <g
           id="g3503">
          <symbol
             id="textext-546a5b6c-0"
             overflow="visible">
            <path
               id="path3506"
               d="M 0.875 -0.59375 C 0.84375 -0.4375 0.78125 -0.203125 0.78125 -0.15625 C 0.78125 0.015625 0.921875 0.109375 1.078125 0.109375 C 1.203125 0.109375 1.375 0.03125 1.453125 -0.171875 C 1.453125 -0.1875 1.578125 -0.65625 1.640625 -0.90625 L 1.859375 -1.796875 C 1.90625 -2.03125 1.96875 -2.25 2.03125 -2.46875 C 2.0625 -2.640625 2.140625 -2.9375 2.15625 -2.96875 C 2.296875 -3.28125 2.828125 -4.1875 3.78125 -4.1875 C 4.234375 -4.1875 4.3125 -3.8125 4.3125 -3.484375 C 4.3125 -3.234375 4.25 -2.953125 4.171875 -2.65625 L 3.890625 -1.5 L 3.6875 -0.75 C 3.65625 -0.546875 3.5625 -0.203125 3.5625 -0.15625 C 3.5625 0.015625 3.703125 0.109375 3.84375 0.109375 C 4.15625 0.109375 4.21875 -0.140625 4.296875 -0.453125 C 4.4375 -1.015625 4.8125 -2.46875 4.890625 -2.859375 C 4.921875 -2.984375 5.453125 -4.1875 6.546875 -4.1875 C 6.96875 -4.1875 7.078125 -3.84375 7.078125 -3.484375 C 7.078125 -2.921875 6.65625 -1.78125 6.453125 -1.25 C 6.375 -1.015625 6.328125 -0.90625 6.328125 -0.703125 C 6.328125 -0.234375 6.671875 0.109375 7.140625 0.109375 C 8.078125 0.109375 8.453125 -1.34375 8.453125 -1.421875 C 8.453125 -1.53125 8.359375 -1.53125 8.328125 -1.53125 C 8.234375 -1.53125 8.234375 -1.5 8.1875 -1.34375 C 8.03125 -0.8125 7.71875 -0.109375 7.171875 -0.109375 C 7 -0.109375 6.921875 -0.203125 6.921875 -0.4375 C 6.921875 -0.6875 7.015625 -0.921875 7.109375 -1.140625 C 7.296875 -1.671875 7.71875 -2.765625 7.71875 -3.34375 C 7.71875 -3.984375 7.3125 -4.40625 6.5625 -4.40625 C 5.828125 -4.40625 5.3125 -3.96875 4.9375 -3.4375 C 4.9375 -3.5625 4.90625 -3.90625 4.625 -4.140625 C 4.375 -4.359375 4.0625 -4.40625 3.8125 -4.40625 C 2.90625 -4.40625 2.421875 -3.765625 2.25 -3.53125 C 2.203125 -4.109375 1.78125 -4.40625 1.328125 -4.40625 C 0.875 -4.40625 0.6875 -4.015625 0.59375 -3.84375 C 0.421875 -3.484375 0.296875 -2.90625 0.296875 -2.875 C 0.296875 -2.765625 0.390625 -2.765625 0.40625 -2.765625 C 0.515625 -2.765625 0.515625 -2.78125 0.578125 -3 C 0.75 -3.703125 0.953125 -4.1875 1.3125 -4.1875 C 1.46875 -4.1875 1.609375 -4.109375 1.609375 -3.734375 C 1.609375 -3.515625 1.578125 -3.40625 1.453125 -2.890625 Z M 0.875 -0.59375 "
               style="stroke:none;" />
          </symbol>
          <symbol
             id="textext-546a5b6c-1"
             overflow="visible">
            <path
               id="path3509"
               d="M 1.078125 -3.890625 C 1.4375 -3.796875 1.640625 -3.796875 1.75 -3.796875 C 2.671875 -3.796875 3.21875 -4.421875 3.21875 -4.53125 C 3.21875 -4.609375 3.171875 -4.625 3.140625 -4.625 C 3.125 -4.625 3.109375 -4.625 3.078125 -4.609375 C 2.90625 -4.546875 2.546875 -4.40625 2.03125 -4.40625 C 1.828125 -4.40625 1.46875 -4.421875 1.015625 -4.59375 C 0.9375 -4.625 0.921875 -4.625 0.921875 -4.625 C 0.828125 -4.625 0.828125 -4.546875 0.828125 -4.4375 L 0.828125 -2.390625 C 0.828125 -2.265625 0.828125 -2.1875 0.9375 -2.1875 C 1 -2.1875 1.015625 -2.1875 1.078125 -2.28125 C 1.375 -2.65625 1.8125 -2.71875 2.046875 -2.71875 C 2.46875 -2.71875 2.65625 -2.390625 2.6875 -2.328125 C 2.8125 -2.09375 2.859375 -1.828125 2.859375 -1.421875 C 2.859375 -1.21875 2.859375 -0.8125 2.640625 -0.5 C 2.46875 -0.25 2.171875 -0.078125 1.828125 -0.078125 C 1.375 -0.078125 0.90625 -0.328125 0.734375 -0.796875 C 1 -0.78125 1.140625 -0.953125 1.140625 -1.140625 C 1.140625 -1.4375 0.875 -1.484375 0.78125 -1.484375 C 0.78125 -1.484375 0.4375 -1.484375 0.4375 -1.109375 C 0.4375 -0.484375 1.015625 0.140625 1.84375 0.140625 C 2.734375 0.140625 3.515625 -0.515625 3.515625 -1.40625 C 3.515625 -2.1875 2.921875 -2.90625 2.0625 -2.90625 C 1.75 -2.90625 1.390625 -2.84375 1.078125 -2.578125 Z M 1.078125 -3.890625 "
               style="stroke:none;" />
          </symbol>
        </g>
      </defs>
      <g
         id="textext-546a5b6c-2">
        <g
           id="g3512"
           style="fill:rgb(0%,0%,0%);fill-opacity:1;">
          <use
             id="use3514"
             y="134.765"
             x="223.432"
             xlink:href="#textext-546a5b6c-0" />
        </g>
        <g
           id="g3516"
           style="fill:rgb(0%,0%,0%);fill-opacity:1;">
          <use
             id="use3518"
             y="136.259"
             x="232.179"
             xlink:href="#textext-546a5b6c-1" />
        </g>
      </g>
    </g>
    <path
       transform="matrix(0.23850053,0,0,0.23850053,429.12594,198.35865)"
       d="m 191.92898,120.749 c 0,1.81315 -1.46985,3.283 -3.283,3.283 -1.81315,0 -3.28299,-1.46985 -3.28299,-3.283 0,-1.81315 1.46984,-3.283 3.28299,-3.283 1.81315,0 3.283,1.46985 3.283,3.283 z"
       sodipodi:ry="3.2829957"
       sodipodi:rx="3.2829957"
       sodipodi:cy="120.749"
       sodipodi:cx="188.64598"
       id="path3563-2"
       style="fill:#161414;fill-opacity:1;stroke:#1d1b1b;stroke-width:10.69179916;stroke-miterlimit:4;stroke-opacity:1;stroke-dasharray:none"
       sodipodi:type="arc" />
    <path
       transform="matrix(0.23850053,0,0,0.23850053,449.90893,198.35865)"
       d="m 191.92898,120.749 c 0,1.81315 -1.46985,3.283 -3.283,3.283 -1.81315,0 -3.28299,-1.46985 -3.28299,-3.283 0,-1.81315 1.46984,-3.283 3.28299,-3.283 1.81315,0 3.283,1.46985 3.283,3.283 z"
       sodipodi:ry="3.2829957"
       sodipodi:rx="3.2829957"
       sodipodi:cy="120.749"
       sodipodi:cx="188.64598"
       id="path3563-2-3"
       style="fill:#161414;fill-opacity:1;stroke:#1d1b1b;stroke-width:10.69179916;stroke-miterlimit:4;stroke-opacity:1;stroke-dasharray:none"
       sodipodi:type="arc" />
    <path
       transform="matrix(0.23850053,0,0,0.23850053,439.51746,198.35865)"
       d="m 191.92898,120.749 c 0,1.81315 -1.46985,3.283 -3.283,3.283 -1.81315,0 -3.28299,-1.46985 -3.28299,-3.283 0,-1.81315 1.46984,-3.283 3.28299,-3.283 1.81315,0 3.283,1.46985 3.283,3.283 z"
       sodipodi:ry="3.2829957"
       sodipodi:rx="3.2829957"
       sodipodi:cy="120.749"
       sodipodi:cx="188.64598"
       id="path3563-2-6"
       style="fill:#161414;fill-opacity:1;stroke:#1d1b1b;stroke-width:10.69179916;stroke-miterlimit:4;stroke-opacity:1;stroke-dasharray:none"
       sodipodi:type="arc" />
    <g
       ns0:text="$x_{t-1}$"
       ns0:preamble=""
       transform="matrix(1.8702703,0,0,1.8461537,112.28866,-37.389484)"
       id="g3704">
      <defs
         id="defs3706">
        <g
           id="g3708">
          <symbol
             overflow="visible"
             id="textext-5de47ea6-0">
            <path
               style="stroke:none;"
               d="M 3.328125 -3.015625 C 3.390625 -3.265625 3.625 -4.1875 4.3125 -4.1875 C 4.359375 -4.1875 4.609375 -4.1875 4.8125 -4.0625 C 4.53125 -4 4.34375 -3.765625 4.34375 -3.515625 C 4.34375 -3.359375 4.453125 -3.171875 4.71875 -3.171875 C 4.9375 -3.171875 5.25 -3.34375 5.25 -3.75 C 5.25 -4.265625 4.671875 -4.40625 4.328125 -4.40625 C 3.75 -4.40625 3.40625 -3.875 3.28125 -3.65625 C 3.03125 -4.3125 2.5 -4.40625 2.203125 -4.40625 C 1.171875 -4.40625 0.59375 -3.125 0.59375 -2.875 C 0.59375 -2.765625 0.703125 -2.765625 0.71875 -2.765625 C 0.796875 -2.765625 0.828125 -2.796875 0.84375 -2.875 C 1.1875 -3.9375 1.84375 -4.1875 2.1875 -4.1875 C 2.375 -4.1875 2.71875 -4.09375 2.71875 -3.515625 C 2.71875 -3.203125 2.546875 -2.546875 2.1875 -1.140625 C 2.03125 -0.53125 1.671875 -0.109375 1.234375 -0.109375 C 1.171875 -0.109375 0.953125 -0.109375 0.734375 -0.234375 C 0.984375 -0.296875 1.203125 -0.5 1.203125 -0.78125 C 1.203125 -1.046875 0.984375 -1.125 0.84375 -1.125 C 0.53125 -1.125 0.296875 -0.875 0.296875 -0.546875 C 0.296875 -0.09375 0.78125 0.109375 1.21875 0.109375 C 1.890625 0.109375 2.25 -0.59375 2.265625 -0.640625 C 2.390625 -0.28125 2.75 0.109375 3.34375 0.109375 C 4.375 0.109375 4.9375 -1.171875 4.9375 -1.421875 C 4.9375 -1.53125 4.859375 -1.53125 4.828125 -1.53125 C 4.734375 -1.53125 4.71875 -1.484375 4.6875 -1.421875 C 4.359375 -0.34375 3.6875 -0.109375 3.375 -0.109375 C 2.984375 -0.109375 2.828125 -0.421875 2.828125 -0.765625 C 2.828125 -0.984375 2.875 -1.203125 2.984375 -1.640625 Z M 3.328125 -3.015625 "
               id="path3711" />
          </symbol>
          <symbol
             overflow="visible"
             id="textext-5de47ea6-1">
            <path
               style="stroke:none;"
               d="M 1.71875 -2.75 L 2.421875 -2.75 C 2.5625 -2.75 2.640625 -2.75 2.640625 -2.90625 C 2.640625 -3 2.5625 -3 2.4375 -3 L 1.78125 -3 L 2.03125 -4.03125 C 2.046875 -4.0625 2.0625 -4.109375 2.0625 -4.125 C 2.0625 -4.265625 1.953125 -4.359375 1.8125 -4.359375 C 1.640625 -4.359375 1.546875 -4.234375 1.484375 -4.0625 C 1.4375 -3.875 1.53125 -4.21875 1.21875 -3 L 0.515625 -3 C 0.390625 -3 0.296875 -3 0.296875 -2.84375 C 0.296875 -2.75 0.375 -2.75 0.5 -2.75 L 1.15625 -2.75 L 0.75 -1.109375 C 0.703125 -0.9375 0.640625 -0.6875 0.640625 -0.59375 C 0.640625 -0.1875 1 0.0625 1.390625 0.0625 C 2.171875 0.0625 2.609375 -0.90625 2.609375 -1 C 2.609375 -1.09375 2.515625 -1.09375 2.5 -1.09375 C 2.40625 -1.09375 2.40625 -1.078125 2.34375 -0.953125 C 2.15625 -0.515625 1.796875 -0.125 1.421875 -0.125 C 1.265625 -0.125 1.171875 -0.21875 1.171875 -0.46875 C 1.171875 -0.53125 1.203125 -0.6875 1.21875 -0.75 Z M 1.71875 -2.75 "
               id="path3714" />
          </symbol>
          <symbol
             overflow="visible"
             id="textext-5de47ea6-2">
            <path
               style="stroke:none;"
               d="M 5.1875 -1.578125 C 5.296875 -1.578125 5.46875 -1.578125 5.46875 -1.734375 C 5.46875 -1.921875 5.296875 -1.921875 5.1875 -1.921875 L 1.03125 -1.921875 C 0.921875 -1.921875 0.75 -1.921875 0.75 -1.75 C 0.75 -1.578125 0.90625 -1.578125 1.03125 -1.578125 Z M 5.1875 -1.578125 "
               id="path3717" />
          </symbol>
          <symbol
             overflow="visible"
             id="textext-5de47ea6-3">
            <path
               style="stroke:none;"
               d="M 2.328125 -4.4375 C 2.328125 -4.625 2.328125 -4.625 2.125 -4.625 C 1.671875 -4.1875 1.046875 -4.1875 0.765625 -4.1875 L 0.765625 -3.9375 C 0.921875 -3.9375 1.390625 -3.9375 1.765625 -4.125 L 1.765625 -0.578125 C 1.765625 -0.34375 1.765625 -0.25 1.078125 -0.25 L 0.8125 -0.25 L 0.8125 0 C 0.9375 0 1.796875 -0.03125 2.046875 -0.03125 C 2.265625 -0.03125 3.140625 0 3.296875 0 L 3.296875 -0.25 L 3.03125 -0.25 C 2.328125 -0.25 2.328125 -0.34375 2.328125 -0.578125 Z M 2.328125 -4.4375 "
               id="path3720" />
          </symbol>
        </g>
      </defs>
      <g
         id="textext-5de47ea6-4">
        <g
           style="fill:rgb(0%,0%,0%);fill-opacity:1;"
           id="g3723">
          <use
             xlink:href="#textext-5de47ea6-0"
             x="223.432"
             y="134.765"
             id="use3725" />
        </g>
        <g
           style="fill:rgb(0%,0%,0%);fill-opacity:1;"
           id="g3727">
          <use
             xlink:href="#textext-5de47ea6-1"
             x="229.126"
             y="136.259"
             id="use3729" />
        </g>
        <g
           style="fill:rgb(0%,0%,0%);fill-opacity:1;"
           id="g3731">
          <use
             xlink:href="#textext-5de47ea6-2"
             x="232.136"
             y="136.259"
             id="use3733" />
        </g>
        <g
           style="fill:rgb(0%,0%,0%);fill-opacity:1;"
           id="g3735">
          <use
             xlink:href="#textext-5de47ea6-3"
             x="238.362"
             y="136.259"
             id="use3737" />
        </g>
      </g>
    </g>
    <g
       id="g4241"
       transform="matrix(1.8702703,0,0,1.8461537,234.28866,-37.389483)"
       ns0:preamble=""
       ns0:text="$x_t$">
      <defs
         id="defs4243">
        <g
           id="g4245">
          <symbol
             id="textext-ed6154e6-0"
             overflow="visible">
            <path
               id="path4248"
               d="M 3.328125 -3.015625 C 3.390625 -3.265625 3.625 -4.1875 4.3125 -4.1875 C 4.359375 -4.1875 4.609375 -4.1875 4.8125 -4.0625 C 4.53125 -4 4.34375 -3.765625 4.34375 -3.515625 C 4.34375 -3.359375 4.453125 -3.171875 4.71875 -3.171875 C 4.9375 -3.171875 5.25 -3.34375 5.25 -3.75 C 5.25 -4.265625 4.671875 -4.40625 4.328125 -4.40625 C 3.75 -4.40625 3.40625 -3.875 3.28125 -3.65625 C 3.03125 -4.3125 2.5 -4.40625 2.203125 -4.40625 C 1.171875 -4.40625 0.59375 -3.125 0.59375 -2.875 C 0.59375 -2.765625 0.703125 -2.765625 0.71875 -2.765625 C 0.796875 -2.765625 0.828125 -2.796875 0.84375 -2.875 C 1.1875 -3.9375 1.84375 -4.1875 2.1875 -4.1875 C 2.375 -4.1875 2.71875 -4.09375 2.71875 -3.515625 C 2.71875 -3.203125 2.546875 -2.546875 2.1875 -1.140625 C 2.03125 -0.53125 1.671875 -0.109375 1.234375 -0.109375 C 1.171875 -0.109375 0.953125 -0.109375 0.734375 -0.234375 C 0.984375 -0.296875 1.203125 -0.5 1.203125 -0.78125 C 1.203125 -1.046875 0.984375 -1.125 0.84375 -1.125 C 0.53125 -1.125 0.296875 -0.875 0.296875 -0.546875 C 0.296875 -0.09375 0.78125 0.109375 1.21875 0.109375 C 1.890625 0.109375 2.25 -0.59375 2.265625 -0.640625 C 2.390625 -0.28125 2.75 0.109375 3.34375 0.109375 C 4.375 0.109375 4.9375 -1.171875 4.9375 -1.421875 C 4.9375 -1.53125 4.859375 -1.53125 4.828125 -1.53125 C 4.734375 -1.53125 4.71875 -1.484375 4.6875 -1.421875 C 4.359375 -0.34375 3.6875 -0.109375 3.375 -0.109375 C 2.984375 -0.109375 2.828125 -0.421875 2.828125 -0.765625 C 2.828125 -0.984375 2.875 -1.203125 2.984375 -1.640625 Z M 3.328125 -3.015625 "
               style="stroke:none;" />
          </symbol>
          <symbol
             id="textext-ed6154e6-1"
             overflow="visible">
            <path
               id="path4251"
               d="M 1.71875 -2.75 L 2.421875 -2.75 C 2.5625 -2.75 2.640625 -2.75 2.640625 -2.90625 C 2.640625 -3 2.5625 -3 2.4375 -3 L 1.78125 -3 L 2.03125 -4.03125 C 2.046875 -4.0625 2.0625 -4.109375 2.0625 -4.125 C 2.0625 -4.265625 1.953125 -4.359375 1.8125 -4.359375 C 1.640625 -4.359375 1.546875 -4.234375 1.484375 -4.0625 C 1.4375 -3.875 1.53125 -4.21875 1.21875 -3 L 0.515625 -3 C 0.390625 -3 0.296875 -3 0.296875 -2.84375 C 0.296875 -2.75 0.375 -2.75 0.5 -2.75 L 1.15625 -2.75 L 0.75 -1.109375 C 0.703125 -0.9375 0.640625 -0.6875 0.640625 -0.59375 C 0.640625 -0.1875 1 0.0625 1.390625 0.0625 C 2.171875 0.0625 2.609375 -0.90625 2.609375 -1 C 2.609375 -1.09375 2.515625 -1.09375 2.5 -1.09375 C 2.40625 -1.09375 2.40625 -1.078125 2.34375 -0.953125 C 2.15625 -0.515625 1.796875 -0.125 1.421875 -0.125 C 1.265625 -0.125 1.171875 -0.21875 1.171875 -0.46875 C 1.171875 -0.53125 1.203125 -0.6875 1.21875 -0.75 Z M 1.71875 -2.75 "
               style="stroke:none;" />
          </symbol>
        </g>
      </defs>
      <g
         id="textext-ed6154e6-2">
        <g
           id="g4254"
           style="fill:rgb(0%,0%,0%);fill-opacity:1;">
          <use
             id="use4256"
             y="134.765"
             x="223.432"
             xlink:href="#textext-ed6154e6-0" />
        </g>
        <g
           id="g4258"
           style="fill:rgb(0%,0%,0%);fill-opacity:1;">
          <use
             id="use4260"
             y="136.259"
             x="229.126"
             xlink:href="#textext-ed6154e6-1" />
        </g>
      </g>
    </g>
  </g>
</svg>
